<?xml version="1.0" encoding="iso-8859-1"?>
<!-- Generator: Adobe Illustrator 19.0.0, SVG Export Plug-In . SVG Version: 6.00 Build 0)  -->
<svg version="1.1" id="Layer_1" xmlns="http://www.w3.org/2000/svg" xmlns:xlink="http://www.w3.org/1999/xlink" x="0px" y="0px"
	 viewBox="0 0 491.52 491.52" style="enable-background:new 0 0 491.52 491.52;" xml:space="preserve">
<circle style="fill:#334D5C;" cx="245.76" cy="245.76" r="245.76"/>
<path style="opacity:0.1;enable-background:new    ;" d="M247.91,104.981c-9.472,0-18.688,1.024-27.546,2.97l7.27,32.973
	l-15.821-15.821c-57.446,12.595-100.403,63.744-100.403,124.928c0,36.506,15.309,69.478,39.834,92.826l0.512,0.461l143.259,143.259
	c97.361-19.808,173.741-97.192,192.182-195.043L333.619,137.954C310.938,117.474,280.883,104.981,247.91,104.981z"/>
<path style="fill:#44C4A1;" d="M377.671,270.75c1.6-8.084,2.457-16.436,2.457-24.99c0-37.67-16.286-71.531-42.195-94.943
	l-85.74,94.943L377.671,270.75z"/>
<path style="fill:#27A2DB;" d="M333.644,137.952c-22.687-20.502-52.753-32.992-85.739-32.992c-9.455,0-18.659,1.056-27.53,3.002
	l27.53,124.933L333.644,137.952z"/>
<path style="fill:#FCD462;" d="M211.799,125.115c-57.419,12.597-100.406,63.731-100.406,124.933
	c0,55.66,35.556,102.994,85.183,120.59l42.753-120.59L211.799,125.115z"/>
<path style="fill:#E56353;" d="M247.905,258.625l-42.752,120.59c13.372,4.741,27.755,7.345,42.752,7.345
	c62.102,0,113.853-44.255,125.477-102.945L247.905,258.625z"/>
<g>
</g>
<g>
</g>
<g>
</g>
<g>
</g>
<g>
</g>
<g>
</g>
<g>
</g>
<g>
</g>
<g>
</g>
<g>
</g>
<g>
</g>
<g>
</g>
<g>
</g>
<g>
</g>
<g>
</g>
</svg>
