<?xml version="1.0" encoding="iso-8859-1"?>
<!-- Generator: Adobe Illustrator 19.0.0, SVG Export Plug-In . SVG Version: 6.00 Build 0)  -->
<svg version="1.1" id="Layer_1" xmlns="http://www.w3.org/2000/svg" xmlns:xlink="http://www.w3.org/1999/xlink" x="0px" y="0px"
	 viewBox="0 0 491.52 491.52" style="enable-background:new 0 0 491.52 491.52;" xml:space="preserve">
<circle style="fill:#334D5C;" cx="245.76" cy="245.76" r="245.76"/>
<path style="opacity:0.1;enable-background:new    ;" d="M293.53,107.725c-1.075-1.638-2.816-2.765-4.864-2.765h-85.811
	c-3.277,0-5.888,2.662-5.888,5.939v55.859h-56.473v210.944c0,2.509,1.024,4.762,2.713,6.4L250.504,491.4
	c115.122-2.188,210.822-83.485,235.035-191.83L293.581,107.571L293.53,107.725z"/>
<path style="fill:#27A2DB;" d="M294.57,247.001V110.893c0-3.276-2.652-5.933-5.924-5.933h-85.773c-3.272,0-5.924,2.656-5.924,5.933
	v136.108c0,3.277,2.652,5.933,5.924,5.933h85.773C291.918,252.933,294.57,250.278,294.57,247.001z"/>
<g>
	<path style="fill:#2D93BA;" d="M234.183,243.048c0.012,0.15,0.147,0.353,0.025,0.479c-0.218-0.092-0.428-0.256-0.53-0.479
		c-0.046-0.105-0.029-0.243-0.076-0.353c-0.086-0.21-0.304-0.32-0.454-0.503c-0.141-0.174-0.261-0.402-0.378-0.581
		c-0.111-0.171-0.34-0.42-0.176-0.63c0.295,0.017,0.292,0.33,0.53,0.404c0.176-0.001,0.196-0.157,0.378-0.151
		c0.306,0.349,0.526,0.899,1.159,0.982c0.28,0.038,0.882-0.19,0.908,0.151c0.031,0.402-0.404,0.175-0.63,0.202
		c-0.092,0.01-0.154,0.104-0.278,0.15C234.441,242.804,234.24,242.797,234.183,243.048z"/>
	<path style="fill:#2D93BA;" d="M232.671,240.603c-0.421-0.14-0.641-0.753-0.908-1.16c-0.082-0.124-0.269-0.226-0.327-0.378
		c-0.078-0.197-0.053-0.42-0.151-0.63c-0.157-0.333-0.463-0.583-0.656-0.883c-0.188-0.293-0.453-0.721-0.479-1.059
		c-0.029-0.373,0.211-1.062,0.554-0.605c0.148,0.198,0.322,0.618,0.428,0.832c0.36,0.717,0.602,1.725,1.034,2.319
		c0.244,0.336,0.503,0.639,0.705,0.958C232.974,240.157,232.7,240.426,232.671,240.603z"/>
	<path style="fill:#2D93BA;" d="M249.535,236.242c0.022,0.081-0.039,0.078-0.05,0.127c-0.36-0.031-0.596-0.246-0.555-0.707
		c0.019-0.206,0.173-0.565,0.277-0.579C249.569,235.031,249.346,236.011,249.535,236.242z"/>
	<path style="fill:#2D93BA;" d="M247.821,235.007c-0.052,0.182-0.625,0.992-0.882,0.731c-0.142-0.141,0.075-0.323,0.125-0.554
		c0.067-0.309-0.015-0.546,0.152-0.756c0.188-0.24,0.597-0.298,0.832-0.555c0.118-0.13,0.278-0.474,0.252-0.705
		c-0.043-0.401-0.502-0.397-0.706-0.756c0.037-0.344-0.063-0.548,0.026-0.807c0.093-0.272,0.446-0.409,0.478-0.656
		c0.035-0.256-0.413-0.862-0.025-0.957c0.314-0.077,0.417,0.423,0.63,0.453c0.219,0.032,0.56-0.196,0.656-0.303
		c0.095-0.105,0.103-0.254,0.176-0.378c0.077-0.128,0.225-0.228,0.303-0.378c0.276-0.528,0.164-1.334,0.605-1.537
		c0.078-0.036,0.164,0.02,0.277-0.025c0.138-0.055,0.183-0.258,0.303-0.328c0.307-0.179,0.761-0.053,0.807,0.252
		c0.041,0.276-0.299,0.819-0.505,0.882c-0.107,0.034-0.228-0.023-0.353,0c-0.149,0.029-0.513,0.251-0.529,0.454
		c-0.021,0.261,0.381,0.415,0.529,0.655c0.102,0.166,0.219,0.438,0.202,0.656c-0.017,0.214-0.185,0.358-0.277,0.604
		c-0.066,0.176-0.092,0.396-0.151,0.606c-0.052,0.183-0.159,0.341-0.227,0.529c-0.218,0.6-0.345,1.315-0.731,1.639
		c-0.106,0.089-0.262,0.087-0.378,0.202c-0.108,0.106-0.213,0.69-0.454,0.705c-0.183,0.013-0.194-0.24-0.378-0.251
		C248.21,234.404,248.232,234.919,247.821,235.007z"/>
	<path style="fill:#2D93BA;" d="M232.721,229.687c-0.315-0.075-0.664-0.315-0.882-0.63c-0.158-0.227-0.478-0.951-0.026-1.033
		c0.126-0.023,0.711,0.141,0.832,0.201c0.353,0.178,0.122,0.369,0.076,0.656C232.673,229.175,232.899,229.452,232.721,229.687z"/>
	<path style="fill:#2D93BA;" d="M269.376,227.721c-0.302,0.103-0.6,0.173-0.882,0.253c-0.346-0.278-0.218-0.828-0.403-1.235
		c-0.087-0.192-0.406-0.245-0.454-0.429c-0.039-0.148,0.129-0.263,0.126-0.403c-0.007-0.362-0.606-0.539-0.454-0.983
		c-0.151-0.254-0.732,0.01-0.781-0.302c-0.035-0.222,0.252-0.344,0.428-0.479c0.214-0.163,0.331-0.396,0.504-0.402
		c0.18-0.007,0.48,0.362,0.605,0.478c0.153,0.143,0.439,0.425,0.479,0.605c0.074,0.336-0.032,0.677,0.075,0.933
		c0.094,0.221,0.442,0.234,0.53,0.353c0.075,0.101,0.054,0.216,0.101,0.303c0.127,0.234,0.563,0.486,1.008,0.353
		c0.281-0.084,0.589-0.551,0.933-0.252c-0.048,0.446-0.488,1.035-0.933,1.109c-0.174,0.029-0.348-0.067-0.529-0.051
		C269.625,227.579,269.513,227.675,269.376,227.721z"/>
	<path style="fill:#2D93BA;" d="M272.124,227.822c-0.129-0.057-0.102-0.171-0.176-0.277c-0.073-0.103-0.304-0.225-0.328-0.353
		c-0.038-0.203,0.199-0.43,0.151-0.631c-0.056-0.236-0.237-0.098-0.453-0.176c0.044-0.207,0.274-0.546,0.504-0.555
		c0.144-0.006,0.234,0.182,0.403,0.227c0.288,0.075,0.433-0.119,0.706-0.227c0.041-0.008,0.043,0.024,0.076,0.025
		c0.052,0.246-0.413,0.73-0.504,1.286C272.443,227.5,272.475,227.801,272.124,227.822z"/>
	<path style="fill:#2D93BA;" d="M246.535,226.89c-0.21,0.026-0.185-0.34-0.05-0.378C246.648,226.519,246.699,226.845,246.535,226.89
		z"/>
	<path style="fill:#2D93BA;" d="M274.241,225.124c-0.132,0.25-0.431,0.854-0.706,0.428
		C273.631,225.295,273.957,225.026,274.241,225.124z"/>
	<path style="fill:#2D93BA;" d="M247.644,223.965c0.157,0.288,0.502,0.604,0.329,1.109c-0.314-0.111-0.307-0.491-0.454-0.731
		c-0.148-0.243-0.4-0.449-0.428-0.756c0.045-0.024,0.078-0.056,0.101-0.101C247.473,223.484,247.537,223.765,247.644,223.965z"/>
	<path style="fill:#2D93BA;" d="M252.384,223.285c-0.001,0.296,0.091,0.575-0.025,0.78c-0.63-0.038-0.151-1.016-0.252-1.663
		c-0.021-0.138-0.128-0.179-0.075-0.329c0.213,0.008,0.429,0.239,0.453,0.479C252.504,222.738,252.385,223.014,252.384,223.285z"/>
	<path style="fill:#2D93BA;" d="M251.603,223.536c-0.349,0.029-0.388-0.448-0.656-0.58c-0.32,0.209-0.768,0.291-1.058,0.53
		c-0.192-0.01-0.444,0.039-0.53-0.076c-0.097-0.507,0.815-0.78,1.134-0.983c-0.073-0.388-1.313-0.034-1.159-0.554
		c0.076-0.255,0.43,0.003,0.705-0.051c0.242-0.047,0.292-0.284,0.48-0.302c0.155-0.015,0.32,0.171,0.479,0.227
		c0.229,0.08,0.668,0.029,0.68,0.302c0.006,0.135-0.283,0.316-0.302,0.404C251.311,222.753,251.683,223.111,251.603,223.536z"/>
	<path style="fill:#2D93BA;" d="M247.847,222.603c-0.191-0.093-0.099-0.611,0.076-0.655
		C248.121,222.037,248.061,222.56,247.847,222.603z"/>
	<path style="fill:#2D93BA;" d="M247.242,222.124c-0.038-0.029-0.071-0.063-0.101-0.1c0.061-0.192,0.108-0.396,0.303-0.454
		C247.651,221.712,247.479,222.118,247.242,222.124z"/>
	<path style="fill:#2D93BA;" d="M247.872,221.443c-0.182-0.128,0.015-0.572-0.176-0.731c0.006-0.262,0.01-0.526,0.227-0.58
		c0.185,0.076,0.058,0.315,0.076,0.504C248.026,220.941,248.239,221.363,247.872,221.443z"/>
	<path style="fill:#2D93BA;" d="M238.217,217.889c0.223-0.002,0.419-0.141,0.655-0.177c0.085-0.013,0.196,0.013,0.303,0
		c0.156-0.017,0.286-0.094,0.378-0.076c0.167,0.035,0.185,0.23,0.328,0.278c0.235,0.079,0.273-0.097,0.555-0.101
		c0.199-0.003,0.296,0.151,0.555,0.253c0.12,0.047,0.343,0.049,0.428,0.1c0.107,0.066,0.199,0.344,0.251,0.454
		c0.19,0.387,0.542,0.696,0.606,1.085c0.016,0.098-0.012,0.232,0,0.302c0.04,0.229,0.232,0.516,0.302,0.832
		c0.069,0.306,0.043,0.576,0.177,0.807c0.146,0.253,0.528,0.611,0.756,0.705c0.277,0.115,0.511,0.081,0.605,0.303
		c0.046,0.109-0.004,0.215,0.025,0.328c0.031,0.117,0.15,0.367,0.227,0.454c0.157,0.176,0.415,0.204,0.58,0.403
		c0.113,0.138,0.289,0.397,0.378,0.58c0.054,0.108,0.11,0.307,0.101,0.402c-0.03,0.356-0.527,0.521-0.428,0.908
		c0.035,0.138,0.328,0.279,0.504,0.404c0.257,0.182,0.604,0.314,0.68,0.63c0.063,0.255-0.098,0.54,0.126,0.68
		c0.159,0.032,0.254-0.119,0.353,0c-0.018,0.294-0.415,0.791-0.428,1.235c-0.008,0.239,0.261,0.684-0.101,0.731
		c-0.16,0.021-0.29-0.179-0.454-0.227c-0.116-0.034-0.178,0.05-0.303-0.025c-0.081-0.205-0.123-0.422-0.353-0.428
		c-0.288-0.008-0.423,0.407-0.581,0.655c-0.108,0.171-0.272,0.313-0.327,0.404c-0.046,0.078-0.067,0.2-0.101,0.252
		c-0.106,0.164-0.347,0.28-0.353,0.505c-0.006,0.256,0.32,0.512,0.631,0.655c0.363,0.168,0.803,0.177,1.185,0.252
		c0.127,0.025,0.252,0.116,0.378,0.152c0.345,0.097,0.81,0.229,0.933,0.529c-0.319,0.301-0.939,0.404-1.463,0.354
		c-0.153,0.201-0.102,0.555-0.454,0.604c-0.122,0.017-0.277-0.06-0.402-0.05c-0.212,0.017-0.398,0.175-0.58,0.202
		c-0.336,0.05-0.613-0.056-0.857,0.1c-0.308,0.197-0.298,0.583-0.631,0.832c-0.207-0.004-0.29,0.078-0.452,0.126
		c-0.077,0.024-0.203,0.001-0.253,0.026c-0.168,0.081-0.185,0.299-0.327,0.378c-0.07,0.039-0.202,0.028-0.328,0.076
		c-0.185,0.069-0.323,0.235-0.504,0.353c-0.175,0.114-0.365,0.3-0.505,0.328c-0.251,0.051-0.423-0.132-0.63-0.177
		c-0.251-0.054-0.574,0-0.832-0.1c-0.303-0.117-0.602-0.406-0.983-0.631c-0.314-0.185-0.667-0.436-0.882-0.706
		c-0.127-0.159-0.201-0.348-0.329-0.504c-0.197-0.241-0.452-0.439-0.68-0.655c-0.24-0.227-0.423-0.502-0.63-0.681
		c-0.3-0.259-0.784-0.388-0.832-0.831c-0.029-0.26-0.006-0.493-0.101-0.731c-0.148-0.373-0.421-0.621-0.428-0.806
		c-0.006-0.195,0.229-0.375,0.252-0.555c0.026-0.202-0.153-0.36-0.151-0.655c0.001-0.12,0.071-0.181,0.126-0.353
		c0.114-0.36,0.109-0.756,0.504-0.807c0.215-0.029,0.312,0.137,0.505,0.125c0.192-0.011,0.241-0.199,0.403-0.278
		c0.174,0.05,0.393,0.058,0.505-0.126c0.157-0.006,0.269,0.034,0.353,0.101c-0.062-0.146-0.101-0.339-0.202-0.505
		c-0.111-0.184-0.365-0.316-0.327-0.528c0.07-0.199,0.268-0.046,0.428-0.076c0.122-0.022,0.644-0.301,0.731-0.429
		c0.1-0.146,0.3-0.679,0.328-0.857c0.122-0.779-0.295-1.276-0.354-1.891c-0.015-0.158,0.027-0.33,0-0.478
		c-0.089-0.507-0.491-1.071-0.756-1.387c-0.052-0.521,0.107-1.05-0.051-1.589c-0.156-0.534-0.601-0.84-0.478-1.663
		c0.14-0.163,0.209-0.453,0.453-0.454c0.192-0.002,0.316,0.284,0.454,0.378c0.147,0.099,0.494,0.269,0.706,0.277
		c0.167,0.005,0.368-0.113,0.579-0.101C237.877,217.798,238.053,217.891,238.217,217.889z"/>
	<path style="fill:#2D93BA;" d="M248.729,217.461c0.019,0.138,0.121,0.24,0.125,0.378c0.012,0.294-0.217,0.584-0.176,0.932
		c-0.082,0.076-0.149,0.024-0.278,0.026c-0.157,0.295-0.129,0.778-0.428,0.932c-0.234-0.221-0.066-0.549-0.025-0.832
		c0.036-0.256,0.018-0.528,0.05-0.807c0.041-0.353,0.236-0.672,0.277-1.008c0.026-0.204-0.029-0.413,0-0.606
		c0.035-0.227,0.354-1.072,0.579-1.084c0.232-0.012,0.298,0.381,0.253,0.731C249.048,216.577,248.648,216.88,248.729,217.461z"/>
	<path style="fill:#2D93BA;" d="M250.468,218.141c0.053-0.19,0.024-0.369,0.076-0.452c0.106-0.173,0.408-0.147,0.58-0.203
		c0.174-0.055,0.267-0.265,0.504-0.377c0.344-0.164,1.113-0.235,1.185,0.201c0.029,0.176-0.106,0.356-0.076,0.479
		c0.06,0.243,0.374,0.2,0.505,0.403c0.073,0.113,0.042,0.319,0.101,0.479c0.061,0.165,0.218,0.289,0.353,0.403
		c0.126,0.106,0.337,0.188,0.428,0.328c0.103,0.157,0.106,0.302,0.202,0.428c0.252,0.33,0.604,0.341,0.908,0.605
		c0.257,0.224-0.248,0.578-0.454,0.606c-0.16,0.125-0.2,0.372-0.378,0.479c-0.444-0.148-0.482-0.567-1.109-0.479
		c-0.102,0.015-0.292,0.084-0.429,0.151c-0.148,0.072-0.307,0.285-0.403,0.277c-0.188-0.017-0.18-0.396-0.378-0.479
		c-0.183-0.076-0.195,0.006-0.479-0.025c-0.206-0.106-0.255-0.391-0.505-0.479c-0.3-0.106-0.687,0.016-0.908-0.226
		c0.009-0.168-0.145-0.351-0.125-0.554c0.02-0.221,0.323-0.432,0.328-0.783c0.001-0.134-0.086-0.292-0.076-0.428
		C250.325,218.387,250.424,218.299,250.468,218.141z"/>
	<path style="fill:#2D93BA;" d="M251.029,216.51c0,0.641-0.995,0.641-0.995,0C250.034,215.868,251.029,215.868,251.029,216.51z"/>
	<path style="fill:#2D93BA;" d="M251.149,215.569c-0.011,0.079-0.399,0.358-0.505,0.353c-0.178-0.009-0.168-0.275-0.403-0.353
		c-0.362-0.118-0.773,0.053-0.959-0.151c-0.069-0.115-0.049-0.321-0.05-0.504c0.322-0.457,0.705-0.819,1.134-1.21
		c0.156-0.142,0.292-0.315,0.454-0.404c0.241-0.131,0.505-0.178,0.731-0.327c0.198-0.132,0.339-0.375,0.554-0.505
		c0.177-0.105,0.41-0.115,0.58-0.226c0.158-0.104,0.226-0.28,0.353-0.404c0.083-0.08,0.212-0.126,0.302-0.201
		c0.379-0.317,0.577-0.926,1.135-0.957c0.148,0.129-0.055,0.262-0.101,0.504c-0.029,0.156,0.013,0.341-0.025,0.454
		c-0.077,0.229-0.435,0.387-0.63,0.63c-0.11,0.136-0.185,0.314-0.302,0.453c-0.125,0.15-0.305,0.259-0.378,0.378
		c-0.101,0.164-0.167,0.391-0.303,0.605c-0.185,0.292-0.378,0.812-0.757,0.882c-0.094,0.017-0.253-0.044-0.327-0.026
		c-0.132,0.035-0.19,0.202-0.303,0.303c-0.141,0.124-0.351,0.15-0.379,0.328C250.923,215.369,251.174,215.377,251.149,215.569z"/>
	<path style="fill:#2D93BA;" d="M256.443,203.67c-0.071,0.217-0.952,0.942-1.437,0.731c-0.138-0.06-0.316-0.31-0.277-0.555
		c0.079-0.499,1.19-0.404,1.639-0.252C256.404,203.609,256.429,203.635,256.443,203.67z"/>
	<path style="fill:#2D93BA;" d="M243.686,186.906c0.203,0.022,0.536,0.167,0.656,0.328c0.173,0.232,0.155,0.547,0.277,0.782
		c0.101,0.194,0.269,0.462,0.454,0.605c0.157,0.122,0.337,0.128,0.454,0.227c0.081,0.067,0.102,0.22,0.201,0.302
		c0.089,0.073,0.255,0.057,0.353,0.177c0.15,0.35-0.491,0.451-0.932,0.505c-0.138,0.016-0.285,0.087-0.353,0.075
		c-0.201-0.036-0.243-0.258-0.379-0.327c-0.552-0.017-1.032-0.234-1.486-0.429c-0.392-0.167-0.822-0.265-1.16-0.403
		c-0.123-0.05-0.219-0.156-0.327-0.201c-0.429-0.182-1.103-0.249-1.286-0.58c-0.066-0.119-0.178-0.579-0.176-0.706
		c0.005-0.309,0.236-0.576,0.504-0.655c0.143-0.043,0.293-0.001,0.454-0.025c0.202-0.031,0.375-0.151,0.605-0.126
		c0.513,0.056,0.762,0.556,1.185,0.58C243.047,187.05,243.364,186.871,243.686,186.906z"/>
	<path style="fill:#2D93BA;" d="M279.561,174.755c-0.423,0.029-0.37-0.646-0.731-0.731c-0.164-0.038-0.382,0.079-0.529,0.051
		c-0.265-0.052-0.188-0.308-0.328-0.63c-0.071-0.165-0.334-0.325-0.353-0.504c-0.018-0.166,0.097-0.267,0.075-0.378
		c-0.031-0.165-0.234-0.11-0.277-0.353c-0.034-0.194,0.173-0.532-0.076-0.555c-0.16-0.015-0.246,0.304-0.227,0.504
		c0.015,0.158,0.124,0.274,0.126,0.428c0.003,0.299-0.222,0.493-0.227,0.681c-0.012,0.433,0.4,0.858,0.353,1.311
		c-0.021,0.205-0.166,0.327-0.151,0.479c0.023,0.243,0.304,0.45,0.404,0.63c0.425-0.076,0.985,0.007,1.008,0.404
		c0.016,0.272-0.466,0.681,0,0.731c0.202,0.022,0.381-0.215,0.378-0.378c-0.003-0.145-0.287-0.336-0.051-0.454
		c0.231,0.001,0.17,0.26,0.227,0.404c0.043,0.107,0.159,0.183,0.202,0.302c0.211,0.6-0.207,1.431,0.302,1.664
		c0.454-0.532-0.166-1.438-0.126-2.042c0.017-0.258,0.208-0.598,0.454-0.68c0.078-0.026,0.182-0.004,0.327-0.025
		c0.161-0.023,0.33-0.106,0.429-0.101c0.455,0.025,0.541,1.159,1.109,1.159c0.208-0.216,0.173-0.851-0.05-1.059
		c-0.08-0.074-0.242-0.071-0.404-0.176c-0.344-0.226-0.385-0.956-0.807-1.185c-0.094-0.051-0.35-0.139-0.504-0.101
		C279.877,174.209,279.812,174.738,279.561,174.755z M254.905,168.755c0.106-0.726-0.187-1.469-0.403-1.967
		c-0.125-0.287-0.317-0.579-0.328-0.832c-0.012-0.239,0.127-0.475,0.151-0.705c0.031-0.3,0.002-0.686-0.05-0.984
		c-0.052-0.29-0.258-0.551-0.277-0.807c-0.037-0.489,0.44-0.954,0.68-1.26c0.146-0.188,0.266-0.379,0.403-0.554
		c0.148-0.188,0.237-0.433,0.378-0.58c0.192-0.199,0.526-0.199,0.782-0.302c0.3-0.123,0.521-0.497,0.807-0.782
		c0.213-0.213,0.532-0.703,0.807-0.756c0.14-0.027,0.302,0.06,0.454,0.05c0.221-0.013,0.346-0.18,0.504-0.176
		c0.222,0.005,0.393,0.266,0.58,0.328c0.096,0.032,0.23,0.017,0.353,0.05c0.256,0.071,0.407,0.24,0.782,0.202
		c0.149-0.015,0.285-0.143,0.479-0.152c0.132-0.005,0.206,0.087,0.328,0.076c0.215-0.019,0.257-0.299,0.504-0.328
		c0.255-0.029,0.466,0.244,0.756,0.404c0.13,0.072,0.329,0.111,0.428,0.176c0.215,0.141,0.318,0.372,0.53,0.479
		c0.156,0.079,0.387,0.104,0.504,0.176c0.15,0.093,0.231,0.278,0.428,0.454c0.161,0.143,0.356,0.202,0.428,0.302
		c0.092,0.127,0.114,0.316,0.176,0.454c0.213,0.467,0.486,0.808,0.933,1.033c0.405-0.069,0.577,0.035,0.857,0.202
		c0.259,0.154,0.507,0.267,0.656,0.53c0.178,0.315,0.195,0.611,0.529,0.831c0.167,0.11,0.456,0.276,0.63,0.278
		c0.25,0.002,0.569-0.256,0.605-0.479c0.036-0.228-0.173-0.578,0.075-0.706c0.08-0.041,0.265,0.015,0.353,0
		c0.165-0.029,0.281-0.171,0.403-0.176c0.237-0.012,0.483,0.233,0.756,0.302c0.372,0.094,0.656,0.003,1.084-0.025
		c0.556,0.353,0.28,1.136,0.227,1.916c-0.008,0.117,0.028,0.251,0.025,0.378c-0.011,0.463-0.15,0.827,0.252,0.983
		c0.151,0.059,0.715,0.111,0.857,0.076c0.169-0.041,0.606-0.372,0.705-0.53c0.159-0.25,0.09-0.613,0.378-0.756
		c0.498,0.116,0.083,0.674,0.202,1.008c0.06,0.171,0.356,0.151,0.404,0.303c0.032,0.103-0.104,0.235-0.101,0.378
		c0.003,0.122,0.225,0.565,0.303,0.68c0.109,0.161,0.335,0.211,0.428,0.353c0.063,0.096,0.055,0.223,0.101,0.328
		c0.092,0.214,0.28,0.486,0.454,0.63c0.25,0.208,0.559,0.302,0.605,0.554c0.062,0.338-0.067,1.103,0.303,1.16
		c0.352,0.054,0.629-0.31,1.008-0.176c0.3,0.106,0.247,0.375,0.428,0.756c-0.131,0.184-0.504,0.131-0.731,0.151
		c-0.002,0.234,0.069,0.711,0.277,0.756c0.26,0.057,0.524-0.341,0.681-0.428c0.17-0.094,0.469-0.115,0.504-0.302
		c0.074-0.384-0.529-0.757-0.529-1.236c0-0.314,0.243-0.648,0.479-0.731c0.135-0.047,0.262-0.004,0.404-0.025
		c0.206-0.031,0.42-0.154,0.705-0.101c0.331,0.193,0.384,0.638,0.555,0.958c0.064,0.121,0.202,0.218,0.252,0.353
		c0.083,0.226-0.001,0.56,0.126,0.782c0.079,0.14,0.217,0.101,0.378,0.202c0.101,0.063,0.16,0.217,0.277,0.302
		c0.081,0.059,0.203,0.066,0.278,0.126c0.272,0.219,0.373,0.619,0.655,0.781c0.125,0.072,0.171-0.124,0.353-0.075
		c0.176,0.081,0.047,0.396,0.076,0.579c0.039,0.251,0.344,0.483,0.403,0.756c0.062,0.286,0.024,0.592,0.126,0.858
		c0.061,0.158,0.205,0.304,0.227,0.454c0.008,0.053-0.029,0.202-0.025,0.277c0.004,0.096,0.063,0.2,0.076,0.328
		c0.018,0.185-0.045,0.415-0.05,0.656c-0.009,0.398,0.12,0.777-0.025,1.109c-0.076,0.174-0.272,0.154-0.353,0.378
		c-0.041,0.113,0.016,0.262,0,0.429c-0.023,0.247-0.194,0.505-0.227,0.832c-0.011,0.116,0.015,0.237,0,0.353
		c-0.044,0.36-0.234,0.756-0.353,1.11c-0.1,0.295-0.224,0.921-0.504,0.933c-0.332,0.014-0.428-0.544-0.428-0.782
		c0-0.397,0.232-0.922,0.101-1.336c-0.57,0.006-1.002,0.622-0.933,1.185c0.268,0.049,0.119-0.318,0.378-0.278
		c0.19,0.251-0.127,0.552-0.076,0.908c0.038,0.139,0.238,0.115,0.378,0.151c0.182,0.3,0.449,0.675,0.252,1.135
		c0.045,0.023,0.078,0.057,0.101,0.101c0.277,0.03,0.421-0.303,0.681-0.126c0.179,0.088,0.117,0.558-0.025,0.63
		c-0.171,0.036-0.152-0.116-0.302-0.101c-0.201,0.089-0.233,0.295-0.227,0.404c0.013,0.248,0.235,0.297,0.353,0.53
		c0.048,0.094,0.053,0.232,0.101,0.353c0.057,0.143,0.171,0.264,0.202,0.378c0.022,0.084,0,0.211,0.025,0.328
		c0.032,0.149,0.151,0.306,0.151,0.428c0,0.152-0.176,0.261-0.202,0.454c-0.014,0.105,0.06,0.225,0.076,0.378
		c0.013,0.124-0.015,0.251,0,0.353c0.035,0.241,0.162,0.406,0.151,0.605c-0.008,0.141-0.197,0.382-0.101,0.479
		c0.162,0.163,0.282-0.218,0.429-0.1c-0.029,0.386-0.02,0.797-0.076,1.185c-0.082,0.576-0.367,1.118-0.378,1.638
		c0.35-0.049,0.25-0.45,0.403-0.63c0.047-0.055,0.416-0.28,0.53-0.277c0.057,0.001,0.542,0.285,0.605,0.353
		c0.209,0.222,0.207,0.951-0.075,1.159c-0.194,0.143-0.485,0.095-0.479,0.302c0.005,0.178,0.443,0.273,0.454,0.479
		c0.009,0.171-0.281,0.257-0.278,0.428c0.004,0.209,0.393,0.354,0.404,0.63c0.006,0.149-0.076,0.199-0.101,0.428
		c0.101,0.158,0.235-0.053,0.378,0.026c0.205,0.282,0.049,0.926,0.176,1.285c0.12,0.101,0.204-0.128,0.328-0.025
		c0.217,0.311,0.237,0.833,0.327,1.362c0.055,0.323,0.28,0.628,0.303,0.882c0.024,0.265-0.155,0.518-0.151,0.756
		c0.002,0.145,0.046,0.314,0.101,0.454c0.055,0.142,0.193,0.239,0.227,0.379c0.054,0.221-0.026,0.5,0,0.756
		c0.027,0.27,0.132,0.509,0.101,0.705c-0.029,0.183-0.225,0.33-0.252,0.504c-0.083,0.531,0.08,1.079-0.05,1.563
		c-0.024,0.087-0.113,0.174-0.152,0.278c-0.118,0.324-0.081,0.545-0.479,0.605c-0.09,0.255-0.324,0.404-0.404,0.705
		c-0.053,0.201,0.025,0.404,0.025,0.63c0,0.298-0.011,0.679-0.05,0.933c-0.022,0.145-0.129,0.264-0.152,0.404
		c-0.017,0.102,0.011,0.237,0,0.353c-0.015,0.158-0.08,0.3-0.076,0.428c0.008,0.264,0.244,0.465,0.278,0.68
		c0.018,0.116-0.041,0.27-0.05,0.378c-0.036,0.425,0.055,0.914-0.026,1.261c-0.043,0.185-0.247,0.502-0.403,0.706
		c-0.113,0.148-0.293,0.238-0.378,0.378c-0.08,0.133-0.224,0.469-0.202,0.606c0.025,0.161,0.205,0.168,0.277,0.327
		c0.111,0.5-0.159,1.388,0.025,1.79c0.072,0.156,0.237,0.125,0.328,0.252c0.037,0.756-0.031,1.51-0.05,2.219
		c-0.007,0.249,0.064,0.506,0.025,0.732c-0.043,0.249-0.294,0.431-0.378,0.68c-0.056,0.165-0.027,0.457-0.076,0.706
		c-0.033,0.167-0.133,0.304-0.151,0.428c-0.038,0.269,0.03,0.527,0.05,0.783c0.047,0.578,0.077,1.321-0.151,1.891
		c-0.122,0.303-0.367,0.43-0.403,0.756c-0.052,0.466,0.038,1.187,0,1.664c-0.01,0.114-0.057,0.22-0.05,0.302
		c0.011,0.16,0.147,0.257,0.151,0.454c0.006,0.249-0.389,0.647-0.328,1.009c0.106,0.156,0.253-0.125,0.353,0.024
		c0.118,0.142,0.001,0.336,0,0.555c-0.001,0.119,0.061,0.266,0.05,0.378c-0.024,0.277-0.273,0.54-0.353,0.882
		c-0.064,0.272-0.087,0.646-0.051,0.984c0.027,0.242,0.108,0.45,0.076,0.68c-0.015,0.111-0.096,0.211-0.126,0.327
		c-0.027,0.108-0.001,0.213-0.025,0.303c-0.023,0.084-0.102,0.167-0.126,0.253c-0.134,0.468-0.2,1.092-0.353,1.588
		c-0.09,0.292-0.271,0.59-0.277,0.832c-0.004,0.119,0.052,0.225,0.05,0.378c-0.005,0.762-0.322,1.657-1.034,1.587
		c-0.195-0.891,0.614-1.637,0.378-2.571c-0.038-0.149-0.201-0.315-0.353-0.302c-0.439,0.035-0.402,1.142-0.832,1.234
		c-0.136-0.181-0.008-0.379-0.025-0.529c-0.027-0.227-0.267-0.61-0.403-0.756c-0.16-0.171-0.569-0.32-0.605-0.504
		c-0.044-0.225,0.222-0.569,0.151-0.908c-0.026-0.124-0.181-0.243-0.202-0.353c-0.053-0.278,0.151-0.632-0.176-0.806
		c-0.23,0.092-0.551,0.036-0.681,0.226c-0.084,0.123-0.019,0.277-0.076,0.428c-0.066,0.177-0.282,0.275-0.404,0.428
		c-0.099,0.125-0.101,0.259-0.227,0.329c-0.186,0.016-0.206-0.074-0.328-0.051c-0.211,0.04-0.259,0.37-0.403,0.378
		c-0.182,0.011-0.143-0.208-0.328-0.251c-0.117-0.016-0.148,0.136-0.302,0.151c-0.103,0.01-0.211-0.083-0.328-0.075
		c-0.168,0.011-0.28,0.143-0.428,0.125c-0.127-0.015-0.227-0.125-0.277-0.227c0.31-0.483,0.737-0.917,1.134-1.437
		c0.407-0.532,0.908-1.374,1.765-1.462c0.131-0.003,0.234,0.278,0.428,0.327c0.08,0.02,0.193-0.031,0.302-0.025
		c0.296,0.018,0.581,0.262,0.756,0.253c0.193-0.012,0.551-0.372,0.605-0.555c-0.077-0.146-0.23-0.002-0.353-0.025
		c-0.152-0.029-0.338-0.214-0.353-0.378c-0.041-0.477,0.614-0.53,0.428-1.286c-0.048-0.196-0.343-0.47-0.706-0.403
		c-0.11,0.021-0.229,0.324-0.378,0.302c-0.145-0.021-0.188-0.687-0.176-0.832c0.033-0.407,0.337-0.616,0.328-0.983
		c-0.004-0.18-0.151-0.338-0.176-0.479c-0.145-0.794,0.391-1.972-0.302-2.243c-0.098-0.039-0.226-0.017-0.328-0.051
		c-0.146-0.049-0.26-0.165-0.353-0.202c-0.078-0.031-0.231-0.026-0.353-0.076c-0.11-0.046-0.54-0.523-0.656-0.101
		c-0.027,0.101,0.043,0.148,0.025,0.278c-0.029,0.216-0.377,0.577-0.378,0.831c-0.001,0.152,0.171,0.363,0.176,0.479
		c0.011,0.234-0.139,0.402-0.227,0.58c-0.083,0.17-0.258,0.429-0.252,0.555c0.012,0.238,0.177,0.124,0.252,0.353
		c-0.129,0.436-0.591,0.64-0.958,1.058c-0.132,0.152-0.246,0.376-0.428,0.58c-0.102,0.114-0.375,0.465-0.504,0.479
		c-0.12,0.013-0.172-0.098-0.278-0.127c-0.153-0.041-0.266,0.055-0.378-0.05c0.149-0.402,0.546-0.493,0.882-0.782
		c0.125-0.107,0.274-0.215,0.454-0.378c0.081-0.074,0.365-0.341,0.302-0.505c-0.12-0.317-0.601,0.174-0.706,0.252
		c-0.222,0.167-0.521,0.39-0.756,0.404c-0.15,0.009-0.423-0.098-0.68-0.101c-0.174-0.002-0.332,0.044-0.479,0.025
		c-0.148-0.019-0.316-0.124-0.479-0.177c-0.185-0.059-0.405-0.073-0.529-0.125c-0.227-0.098-0.495-0.428-0.504-0.656
		c-0.009-0.209,0.161-0.299,0.151-0.504c-0.015-0.31-0.3-0.367-0.529-0.554c-0.248,0.016-0.334,0.094-0.504,0.05
		c-0.267-0.068-0.314-0.44-0.58-0.428c-0.246,0.01-0.294,0.34-0.404,0.504c-0.15,0.225-0.483,0.619-0.756,0.833
		c-0.18,0.14-0.515,0.343-0.705,0.328c-0.25-0.019-0.596-0.737-0.504-1.035c0.087-0.282,0.357-0.185,0.605-0.251
		c0.191-0.052,0.273-0.201,0.428-0.277c0.082-0.04,0.211-0.022,0.302-0.076c0.257-0.152,0.116-0.418,0.278-0.732
		c0.106-0.205,0.328-0.146,0.53-0.226c0.271-0.108,0.399-0.565,0.327-0.932c-0.052-0.27-0.279-0.354-0.327-0.605
		c0.219-0.37,0.76,0.076,0.807-0.378c0.036-0.348-0.499-0.578-0.656-0.782c-0.105-0.138-0.127-0.387-0.277-0.403
		c-0.278-0.03-0.222,0.293-0.328,0.554c-0.097,0.236-0.364,0.264-0.378,0.479c-0.012,0.18,0.186,0.3,0.202,0.479
		c0.027,0.31-0.112,0.561-0.227,0.756c-0.306-0.126-0.53-0.805-0.933-0.807c-0.234-0.001-0.274,0.271-0.428,0.479
		c-0.131,0.176-0.499,0.408-0.756,0.655c-0.111,0.107-0.184,0.28-0.252,0.329c-0.167,0.116-0.37,0.098-0.479,0.226
		c-0.138,0.022-0.172-0.063-0.302-0.05c-0.181,0.062-0.147,0.341-0.328,0.404c-0.435-0.052-0.844,0.129-1.008-0.227
		c-0.78-0.164-1.39-0.349-1.815-0.882c-0.381-0.479-0.494-1.112-0.681-1.69c-0.048-0.15-0.206-0.269-0.252-0.403
		c-0.114-0.335-0.045-0.933-0.454-0.957c-0.202-0.014-0.324,0.256-0.529,0.277c-0.316,0.032-0.633-0.251-0.656-0.454
		c-0.016-0.146,0.086-0.462,0.353-0.479c0.3-0.02,0.423,0.373,0.605,0.404c0.321,0.053,0.633-0.277,0.605-0.655
		c-0.025-0.333-0.693-1.09-1.059-1.109c-0.273-0.015-0.842,0.541-1.008,0.731c-0.624,0.708-0.998,1.46-2.521,1.336
		c-0.386-0.177-0.468-0.629-0.681-0.983c-0.162-0.269-0.663-0.404-0.706-0.858c0.062-0.182,0.347-0.076,0.479-0.126
		c0.181-0.069,0.269-0.43,0.454-0.655c0.152-0.185,0.39-0.262,0.53-0.404c0.174-0.176,0.21-0.44,0.328-0.656
		c0.074-0.136,0.334-0.241,0.327-0.378c-0.009-0.222-0.223-0.145-0.579-0.201c-0.351-0.056-0.62-0.312-1.034-0.227
		c-0.169,0.036-0.306,0.247-0.479,0.353c-0.286,0.175-0.619,0.199-0.782,0.378c-0.108,0.118-0.131,0.32-0.227,0.454
		c-0.191,0.267-0.605,0.738-0.832,0.832c-0.265,0.109-0.578,0.004-0.857,0.076c-0.323,0.084-0.554,0.506-0.882,0.253
		c0.045-0.241,0.203-0.452,0.328-0.656c0.214-0.346,0.399-0.506,0.756-0.731c0.104-0.066,0.206-0.164,0.302-0.202
		c0.226-0.088,0.482-0.069,0.756-0.151c0.236-0.071,0.609-0.344,0.807-0.555c0.167-0.177,0.264-0.491,0.504-0.504
		c0.338-0.018,0.736,0.115,1.135,0.101c0.086-0.003,0.173-0.062,0.277-0.075c0.194-0.027,0.43,0.019,0.606-0.026
		c0.161-0.041,0.306-0.159,0.453-0.227c0.145-0.067,0.291-0.136,0.479-0.201c0.291-0.103,0.854-0.217,0.882-0.454
		c0.031-0.253-0.474-0.502-0.479-0.832c-0.003-0.169,0.133-0.395,0.303-0.428c0.155-0.032,0.311,0.079,0.479,0.076
		c0.338-0.009,0.469-0.249,0.706-0.429c0.096-0.073,0.231-0.092,0.302-0.152c0.137-0.115,0.213-0.333,0.353-0.479
		c0.134-0.138,0.326-0.29,0.454-0.353c0.197-0.097,0.453-0.129,0.479-0.277c0.025-0.142-0.179-0.306-0.227-0.454
		c-0.05-0.154-0.115-0.531-0.126-0.681c-0.035-0.506,0.1-0.917-0.504-0.857c-0.271-0.079-0.274-0.365-0.403-0.555
		c-0.164-0.241-0.493-0.417-0.756-0.68c-0.129-0.128-0.209-0.313-0.328-0.428c-0.099-0.096-0.258-0.126-0.353-0.227
		c-0.254-0.269-0.276-0.672-0.63-0.856c-0.419-0.011-0.736,0.198-1.134,0.151c-0.181-0.022-0.343-0.157-0.53-0.177
		c-0.16-0.016-0.333,0.066-0.504,0.026c-0.092-0.022-0.14-0.124-0.252-0.202c-0.101-0.07-0.234-0.098-0.302-0.15
		c-0.109-0.085-0.185-0.225-0.278-0.304c-0.152-0.128-0.26-0.155-0.277-0.277c-0.079-0.552,0.971-0.689,1.412-0.933
		c0.202-0.113,0.385-0.342,0.63-0.454c0.283-0.129,0.637-0.169,0.958-0.353c0.274-0.157,0.548-0.373,0.832-0.479
		c0.24-0.09,0.54-0.167,0.807-0.252c0.281-0.09,0.635-0.187,0.857-0.202c0.327-0.021,0.529,0.063,0.656-0.202
		c-0.057-0.243-0.302-0.351-0.302-0.63c0-0.269,0.466-0.991,0.882-0.781c0.25-0.176,0.386-0.62,0.68-0.959
		c0.169-0.194,0.57-0.369,0.605-0.705c0.01-0.093-0.043-0.214-0.05-0.303c-0.018-0.213,0.019-0.592,0-0.832
		c-0.024-0.302-0.092-0.676-0.05-1.059c0.027-0.246,0.074-0.553,0.101-0.807c0.033-0.323,0.11-0.752,0.278-0.932
		c0.103-0.112,0.434-0.157,0.479-0.354c0.054-0.234-0.127-0.362-0.176-0.579c-0.106-0.462,0.095-0.848,0.302-1.16
		c0.147-0.221,0.223-0.423,0.328-0.58c0.257-0.383,1.028-0.452,1.034-1.034c0.002-0.202-0.125-0.524-0.353-0.555
		c-0.161-0.02-0.458,0.192-0.58,0.278c-0.398,0.283-0.548,0.802-1.083,0.958c-0.041,0.104,0.092,0.317-0.025,0.428
		c-0.23,0.098-0.656-0.001-0.756,0.227c-0.173,1.048,0.401,1.347,0.807,1.816c-0.178,0.272-0.333,0.182-0.529,0.277
		c-0.201,0.097-0.359,0.248-0.429,0.428c-0.048,0.127-0.003,0.289-0.075,0.479c-0.045,0.119-0.516,0.616-0.681,0.631
		c-0.148,0.013-0.653-0.327-0.781-0.43c-0.125-0.1-0.19-0.255-0.302-0.302c-0.087-0.036-0.272-0.024-0.328-0.05
		c-0.101-0.046-0.232-0.273-0.353-0.404c-0.129-0.138-0.228-0.298-0.328-0.428c-0.122-0.159-0.29-0.258-0.353-0.428
		c-0.124-0.335-0.071-0.654-0.252-0.933c-0.118-0.182-0.386-0.183-0.529-0.403c-0.15-0.23-0.151-0.625-0.303-0.959
		c-0.097-0.214-0.287-0.343-0.353-0.528c-0.027-0.076-0.004-0.171-0.025-0.253c-0.043-0.168-0.162-0.322-0.201-0.479
		c-0.032-0.124-0.016-0.256-0.051-0.378c-0.112-0.388-0.507-0.744-0.277-1.134c0.425-0.184,0.959-0.214,1.336-0.428
		c0.192-0.109,0.251-0.325,0.453-0.403c0.162-0.011,0.118,0.185,0.252,0.201c0.272-0.064,0.4-0.321,0.631-0.479
		c0.113-0.077,0.273-0.113,0.403-0.202c0.437-0.301,0.665-0.893,1.21-1.009c0.148-0.031,0.265,0.005,0.378-0.025
		c0.186-0.05,0.383-0.176,0.529-0.303c0.112-0.096,0.188-0.293,0.353-0.403c0.109-0.073,0.262-0.089,0.378-0.151
		c0.468-0.251,0.881-0.614,1.21-1.008c-0.03-0.206-0.044-0.427-0.177-0.529c-0.33,0.102-0.606,0.26-0.882,0.428
		c-0.251,0.154-0.523,0.373-0.807,0.479c-0.105,0.04-0.242,0.032-0.353,0.076c-0.4,0.158-0.523,0.657-0.984,0.756
		c-0.309,0.067-0.523-0.015-0.831,0.076c-0.297,0.087-0.472,0.524-0.756,0.706c-0.232,0.148-0.561,0.149-0.782,0.252
		c-0.323,0.151-0.463,0.573-0.681,0.882c-0.195,0.278-0.497,0.476-0.706,0.705c-0.122,0.135-0.145,0.32-0.278,0.353
		c-0.171,0.043-0.228-0.072-0.378-0.101c-0.202,0.194-0.574,0.382-0.605,0.706c-0.013,0.133,0.122,0.301,0.152,0.504
		c0.015,0.102-0.016,0.217,0,0.302c0.024,0.134,0.144,0.251,0.176,0.404c0.055,0.257,0.033,0.556,0.076,0.882
		c0.04,0.308,0.3,0.52,0.227,0.756c-0.285,0.259-0.607,0.073-0.882,0c-0.097-0.026-0.197-0.026-0.278-0.05
		c-0.449-0.136-0.781-0.493-1.185-0.656c-0.124-0.05-0.275-0.041-0.403-0.1c-0.404-0.188-0.803-0.579-1.134-0.883
		c-0.186-0.171-0.355-0.322-0.504-0.504c-0.149-0.181-0.23-0.402-0.378-0.606c-0.295-0.403-0.719-0.824-1.11-1.109
		c-0.151-0.11-0.326-0.163-0.454-0.278c-0.183-0.164-0.274-0.418-0.454-0.554c-0.142-0.108-0.399-0.179-0.655-0.303
		c-0.288-0.139-0.483-0.428-0.882-0.378c-0.153,0.019-0.248,0.156-0.404,0.202c-0.269,0.078-0.495,0.018-0.781-0.026
		c-0.346,0.143-0.73,0.245-0.958,0.504c-0.51,0.031-1.005-0.042-1.437,0c-0.275,0.027-0.478,0.134-0.731,0.025
		c-0.223-0.095-0.616-0.462-0.756-0.68c-0.154-0.238-0.194-0.602-0.379-0.858c-0.128-0.177-0.354-0.325-0.505-0.504
		c-0.248-0.297-0.479-0.705-0.731-0.731c-0.145-0.015-0.364,0.114-0.504,0.151c-0.372,0.099-0.908,0.194-1.311,0.026
		c-0.436-0.183-0.346-1.107-0.807-1.21c-0.14-0.031-0.252,0.062-0.404,0.05c-0.128-0.009-0.592-0.178-0.731-0.252
		c-0.209-0.111-0.302-0.365-0.479-0.529c-0.223-0.206-0.547-0.311-0.781-0.53c-0.32-0.297-0.656-0.699-0.933-1.084
		c-0.242-0.335-0.493-0.936-0.53-1.462c-0.022-0.306,0.072-0.635,0.025-0.958c-0.017-0.118-0.125-0.247-0.151-0.404
		c-0.015-0.091,0.016-0.184,0-0.277c-0.027-0.158-0.153-0.307-0.151-0.454c0.004-0.327,0.393-0.746,0.781-0.756
		c0.15-0.004,0.292,0.128,0.429,0.126c0.161-0.003,0.363-0.2,0.656-0.353c0.281-0.147,0.6-0.205,0.831-0.353
		c0.246-0.157,0.362-0.363,0.555-0.479c0.388-0.232,0.847-0.249,1.311-0.328c0.151-0.025,0.316-0.129,0.504-0.152
		c0.232-0.027,0.489,0.028,0.68-0.025c0.148-0.041,0.298-0.204,0.479-0.303c0.327-0.178,0.754-0.302,1.008-0.453
		c0.238-0.142,0.486-0.428,0.756-0.454c0.184-0.017,0.525,0.023,0.706,0.05c0.177,0.027,0.317,0.159,0.504,0.202
		c0.124,0.029,0.267-0.006,0.404,0.025c0.577,0.129,0.787,0.764,1.488,0.681c0.297-0.036,0.444-0.246,0.782-0.277
		c0.158-0.015,0.297,0.079,0.454,0.076c0.213-0.004,0.529-0.185,0.731-0.278c0.556-0.255,1.065-0.412,1.487-0.781
		c0.23-0.201,0.393-0.465,0.605-0.63c0.173-0.136,0.497-0.3,0.63-0.303c0.144-0.003,0.234,0.111,0.378,0.151
		c0.186,0.053,0.538,0.057,0.832,0.126c0.135,0.032,0.462,0.178,0.68,0.152c0.211-0.025,0.615-0.339,0.68-0.605
		c0.087-0.352-0.113-0.714-0.076-1.159C254.19,169.28,254.825,169.308,254.905,168.755z M245.88,182.696
		c0.185,0.117,0.706,0.263,0.832,0c0-0.017,0-0.034,0-0.05C246.503,182.533,245.997,182.413,245.88,182.696z M251.149,182.343
		c0.174,0.085,0.359,0.285,0.579,0.252c0.486-0.073,0.246-0.981-0.101-1.083c-0.234-0.07-0.419,0.041-0.656-0.051
		c-0.187,0.099-0.223,0.348-0.201,0.656C250.846,182.286,250.989,182.265,251.149,182.343z M248.552,180.805
		c0.185,0.1,0.306-0.159,0.505-0.202c0.233-0.05,0.506,0.056,0.63-0.152c0-0.025,0-0.05,0-0.075
		C249.274,180.194,248.592,180.453,248.552,180.805z M273.586,197.998c0.19-0.095-0.056-0.367-0.227-0.251
		C273.348,197.917,273.447,197.979,273.586,197.998z M272.552,192.125c0.079,0.409,0.732,0.005,0.656-0.303
		C273.108,191.42,272.499,191.846,272.552,192.125z M269.301,190.259c0.874,0.126,0.94-0.555,1.563-0.681
		c-0.008,0.058,0.073,0.028,0.076,0.076c0.08,0.165-0.127,0.416,0.075,0.503c0.299,0.002,0.521-0.377,0.378-0.756
		c0.075-0.109,0.245-0.124,0.404-0.151c0.17-0.286,0.542-0.993,0.882-0.983c0.28,0.008,0.437,0.37,0.428,0.782
		c0.132,0.174,0.537,0.062,0.63-0.101c0.143-0.652,0.046-0.999-0.252-1.412c-0.143-0.198-0.242-0.419-0.328-0.53
		c-0.079-0.102-0.295-0.238-0.403-0.226c-0.156,0.016-0.248,0.239-0.454,0.328c-0.106,0.045-0.239,0.035-0.328,0.076
		c-0.243,0.11-0.4,0.392-0.605,0.605c-0.145,0.15-0.458,0.572-0.63,0.58c-0.144,0.008-0.176-0.129-0.328-0.176
		c-0.149-0.048-0.501-0.102-0.63-0.076c-0.277,0.055-0.286,0.342-0.404,0.604c-0.116,0.26-0.321,0.511-0.327,0.782
		C269.041,189.791,269.133,190.098,269.301,190.259z M271.116,184.335c0.123,0.683,0.701,0.371,0.907,0.025
		c0.157-0.262,0.293-0.576,0.479-0.882c0.108-0.178,0.313-0.853,0.529-0.857c0.237-0.005,0.314,0.502,0.731,0.302
		c0.084-0.345-0.048-1.166-0.428-1.109c-0.22,0.032-0.098,0.293-0.328,0.353c-0.088-0.247-0.318-0.547-0.278-0.807
		c0.048-0.309,0.428-0.388,0.656-0.554c-0.008-0.24,0.232-0.398,0.202-0.681c-0.032-0.297-0.463-0.454-0.681-0.605
		c-0.115-0.08-0.174-0.208-0.277-0.252c-0.062-0.026-0.162,0.003-0.252-0.025c-0.28-0.087-0.383-0.329-0.63-0.303
		c-0.218,0.024-0.316,0.261-0.504,0.278c-0.194-0.017-0.093-0.327-0.328-0.303c-0.372,0.451,0.176,0.476,0.252,0.706
		c0.062,0.185-0.051,0.547,0,0.781c0.041,0.189,0.222,0.338,0.302,0.555c0.05,0.132,0.094,0.296,0.101,0.479
		c0.033,0.802-0.489,1.32-0.504,2.017C271.06,183.683,271.072,184.095,271.116,184.335z M268.141,182.721
		c0.271,0.014,0.474-0.103,0.857-0.126c0.281-0.465-0.26-0.813-0.201-1.285c0.036-0.29,0.374-0.499,0.327-0.807
		c-0.025-0.17-0.245-0.254-0.277-0.429c-0.066-0.36,0.288-0.524,0.151-0.907c0.411-0.54,1.081-0.781,1.84-0.908
		c0.386-0.294,0.072-0.743-0.176-0.958c0.001-0.132,0.073-0.298-0.076-0.327c-0.466-0.099-0.516,0.659-0.832,0.655
		c-0.206-0.002-0.187-0.296-0.327-0.428c-0.15-0.141-0.283-0.047-0.378-0.227c-0.06-0.497,0.212-0.662,0.655-0.656
		c0.326-0.215,0.563-0.486,0.832-0.68c0.099-0.072,0.254-0.18,0.404-0.202c0.118-0.018,0.267,0.056,0.403,0.025
		c0.241-0.055,0.422-0.503,0.554-0.782c0.142-0.298,0.276-0.671,0.454-0.882c0.126-0.15,0.345-0.22,0.428-0.353
		c0.071-0.113,0.056-0.253,0.126-0.353c0.097-0.138,0.258-0.115,0.303-0.302c0.035-0.095-0.094-0.241-0.177-0.302
		c-0.55-0.123-0.588,0.325-0.831,0.529c-0.167,0.141-0.419,0.211-0.53,0.353c-0.118,0.152-0.096,0.359-0.176,0.554
		c-0.055,0.135-0.224,0.223-0.302,0.353c-0.146,0.241-0.172,0.627-0.454,0.656c-0.102-0.15,0.148-0.489-0.101-0.605
		c-0.164-0.03-0.248,0.13-0.403,0.126c-0.248-0.006-0.52-0.282-0.479-0.53c0.148-0.025,0.269,0.132,0.429,0.126
		c0.321-0.011,0.81-0.656,0.958-0.983c0.069-0.154,0.073-0.34,0.151-0.479c0.139-0.248,0.482-0.681,0.68-0.832
		c0.239-0.18,0.681-0.334,0.656-0.731c-0.01-0.162-0.158-0.295-0.227-0.428c-0.062-0.121-0.119-0.255-0.201-0.378
		c-0.097-0.147-0.196-0.267-0.202-0.404c-0.013-0.316,0.235-0.585,0.176-0.857c-0.02-0.092-0.102-0.168-0.202-0.278
		c-0.147-0.004-0.241,0.044-0.403,0.025c-0.142-0.082-0.133-0.326-0.227-0.504c-0.138-0.261-0.42-0.493-0.63-0.706
		c-0.135-0.137-0.246-0.26-0.353-0.277c-0.083-0.013-0.241,0.071-0.353,0.051c-0.122-0.022-0.374-0.251-0.479-0.404
		c-0.061-0.089-0.069-0.208-0.126-0.302c-0.118-0.199-0.271-0.288-0.302-0.454c-0.082-0.441,0.088-1.241-0.378-1.235
		c-0.312,0.004-0.313,0.425-0.302,0.681c0.014,0.356-0.076,0.66-0.025,0.857c0.034,0.136,0.187,0.285,0.252,0.428
		c0.041,0.09,0.041,0.184,0.076,0.252c0.076,0.151,0.199,0.236,0.252,0.353c0.105,0.23,0.187,0.66,0.202,0.907
		c0.02,0.34-0.035,0.695,0,1.134c0.012,0.157,0.113,0.311,0.126,0.479c0.022,0.274-0.108,0.635-0.101,0.857
		c0.005,0.154,0.154,0.325,0.151,0.504c-0.003,0.203-0.148,0.417-0.278,0.454c-0.074,0.021-0.192-0.043-0.302-0.025
		c-0.183,0.029-0.259,0.187-0.378,0.177c-0.158-0.013-0.369-0.407-0.555-0.353c-0.12,0.035-0.244,0.317-0.328,0.454
		c-0.087,0.143-0.208,0.385-0.227,0.554c-0.016,0.143,0.04,0.269,0.025,0.404c-0.024,0.217-0.155,0.569-0.252,0.706
		c-0.167,0.237-0.434,0.204-0.529,0.479c-0.041,0.117-0.018,0.328-0.051,0.479c-0.079,0.367-0.384,0.64-0.353,0.908
		c0.049,0.422,0.447,0.23,0.731,0.278c0.644,0.108,0.614,1.365,0.177,1.613c-0.049,0.184-0.008,0.345-0.076,0.554
		c-0.039,0.121-0.172,0.211-0.202,0.328c-0.022,0.088,0.013,0.216,0,0.328c-0.055,0.483-0.414,0.921-0.353,1.336
		c0.039,0.263,0.287,0.454,0.302,0.705c0.03,0.482-0.359,0.791-0.176,1.311c0.134,0.383,0.531,0.297,0.933,0.428
		C267.74,182.535,267.93,182.711,268.141,182.721z M276.737,209.897c0.321,0.1,0.645-0.055,0.857-0.252
		c-0.05-0.291-0.353-0.081-0.53-0.101c-0.25-0.029-0.424-0.294-0.681-0.278c-0.113-0.097-0.158-0.262-0.353-0.277
		c-0.111,0.16,0.087,0.23,0.202,0.353C276.414,209.536,276.521,209.831,276.737,209.897z M285.485,203.292
		c0-0.277-0.109-0.382-0.202-0.554c-0.05-0.095-0.078-0.288-0.227-0.227C285.086,202.753,285.196,203.235,285.485,203.292z
		 M282.384,192.654c-0.138,0.593,0.531,0.871,0.908,0.479c0.088-0.092,0.122-0.401,0.327-0.529c0.246-0.154,0.576-0.133,0.504-0.505
		c-0.029-0.004-0.071,0.005-0.075-0.026c-0.551-0.035-0.69,0.768-1.134,0.756C282.681,192.825,282.656,192.578,282.384,192.654z"/>
	<path style="fill:#2D93BA;" d="M283.342,184.359c0.273-0.073,0.229,0.444-0.025,0.353
		C283.241,184.632,283.248,184.411,283.342,184.359z"/>
	<path style="fill:#2D93BA;" d="M268.267,181.259c0.208,0.012,0.285,0.486,0.101,0.579
		C268.165,181.807,268.025,181.357,268.267,181.259z"/>
	<path style="fill:#2D93BA;" d="M269.628,172.612c0.213,0.263,0.069,0.848,0.076,1.21c-0.193-0.068-0.443-0.078-0.555-0.227
		C269.224,173.182,269.325,172.797,269.628,172.612z"/>
	<path style="fill:#2D93BA;" d="M270.964,170.772c0.362,0.346,0.171,0.71-0.529,0.58c-0.209-0.083-0.488-0.443-0.177-0.605
		C270.502,170.802,270.683,170.778,270.964,170.772z"/>
	<path style="fill:#2D93BA;" d="M271.771,171.276c-0.213,0.029-0.309-0.06-0.378-0.176
		C271.451,170.767,272.048,171.02,271.771,171.276z"/>
	<path style="fill:#2D93BA;" d="M276.888,166.386c0.144,0.029,0.323-0.083,0.404-0.227c0.047-0.083,0.025-0.209,0.076-0.302
		c0.135-0.246,0.416-0.335,0.479-0.479c0.276,0.018,0.476-0.076,0.656,0c0.109,0.046,0.416,0.377,0.479,0.554
		c0.078,0.22,0.008,0.451,0.176,0.58c0.008,0.058-0.004,0.097-0.025,0.126c-0.159-0.001-0.185-0.135-0.328-0.152
		c-0.229,0.031-0.086,0.435-0.302,0.479c-0.236-0.038-0.282-0.25-0.454-0.252c-0.15-0.001-0.434,0.306-0.63,0.454
		c-0.146,0.111-0.254,0.304-0.404,0.404c-0.131,0.087-0.286,0.106-0.353,0.176c-0.125,0.132-0.146,0.432-0.328,0.454
		c-0.241,0.029-0.336-0.299-0.605-0.252c-0.272-0.346-0.131-0.924-0.202-1.488c-0.032-0.255-0.286-0.537-0.076-0.807
		c0.169-0.062,0.192,0.224,0.353,0.252c0.149-0.02,0.128-0.208,0.252-0.252c0.196,0.073,0.236,0.302,0.53,0.278
		C276.739,166.072,276.681,166.343,276.888,166.386z"/>
	<path style="fill:#2D93BA;" d="M277.494,164.495c0.206,0.337,0.048,0.925-0.202,0.957c-0.189,0.025-0.216-0.179-0.428-0.252
		c-0.193-0.066-0.422,0.013-0.555-0.075c-0.115-0.077-0.108-0.287-0.151-0.429c-0.095-0.317-0.467-0.929-0.05-1.185
		c0.223,0.037,0.268,0.253,0.453,0.328c0.146,0.004,0.223-0.151,0.378-0.126c0.19,0.031,0.125,0.174,0.202,0.378
		C277.197,164.239,277.377,164.303,277.494,164.495z"/>
	<path style="fill:#2D93BA;" d="M282.964,147.276c-0.224,0.053-0.517-0.663-0.227-0.732
		C282.969,146.491,283.258,147.094,282.964,147.276z"/>
	<path style="fill:#2D93BA;" d="M226.141,146.444c0-0.126,0-0.252,0-0.378C226.183,146.134,226.183,146.376,226.141,146.444z"/>
	<path style="fill:#2D93BA;" d="M284.754,145.31c0.035,0.033,0.035,0.119,0,0.152c-0.059-0.025-0.124-0.045-0.101-0.152
		C284.687,145.31,284.721,145.31,284.754,145.31z"/>
	<path style="fill:#2D93BA;" d="M280.746,143.066c-0.139,0.005-0.369-0.501-0.101-0.555c0.047-0.009,0.141,0.003,0.201,0.101
		C280.929,142.747,280.882,143.061,280.746,143.066z"/>
	<path style="fill:#2D93BA;" d="M257.326,132.579c-0.038-0.013-0.064-0.037-0.101-0.05
		C257.234,132.26,257.577,132.502,257.326,132.579z"/>
	<path style="fill:#2D93BA;" d="M274.947,122.343c0.103,0.177-0.155,0.346-0.277,0.227
		C274.632,122.376,274.855,122.326,274.947,122.343z"/>
	<path style="fill:#2D93BA;" d="M274.015,149.822c0.029-0.118,0.024-0.278,0.05-0.428c0.023-0.129,0.061-0.281,0.076-0.403
		c0.037-0.311-0.053-0.648,0.126-0.832c0.399,0.3,0.791,0.698,1.134,1.084c0.102,0.115,0.173,0.361,0.378,0.302
		c0.188-0.215-0.011-0.478-0.126-0.681c-0.12-0.213-0.292-0.466-0.328-0.706c-0.062-0.417,0.122-0.97-0.101-1.311
		c-0.19-0.047-0.117,0.388-0.404,0.327c-0.027-0.167-0.041-0.325,0.076-0.453c0.106-0.117,0.264-0.05,0.328-0.126
		c0.107-0.129,0.136-0.615,0.101-0.832c-0.043-0.265-0.202-0.499-0.428-0.53c-0.149,0.318,0.153,0.843-0.227,0.958
		c-0.314-0.174-0.487-0.585-0.907-0.53c-0.162,0.022-0.379,0.215-0.404,0.353c-0.024,0.139,0.114,0.218,0.101,0.353
		c-0.013,0.143-0.176,0.11-0.152,0.278c0.104,0.243,0.444,0.377,0.429,0.655c-0.405,0.334-0.602-0.301-0.731-0.655
		c-0.146-0.404-0.224-0.928-0.353-1.236c-0.067-0.161-0.657-0.771-0.201-0.857c0.328-0.062,0.234,0.302,0.504,0.378
		c0.076-0.39-0.168-0.754-0.303-1.109c-0.192-0.507-0.313-1.365-0.882-1.488c-0.114-0.024-0.327,0.05-0.403-0.025
		c-0.061-0.06-0.072-0.422-0.126-0.58c-0.083-0.243-0.262-0.455-0.302-0.605c-0.031-0.113-0.022-0.281-0.051-0.353
		c-0.078-0.2-0.349-0.274-0.529-0.504c-0.074-0.094-0.127-0.303-0.202-0.378c-0.13-0.13-0.455-0.148-0.504-0.378
		c-0.013-0.146,0.11-0.265,0.025-0.404c-0.321-0.017-0.759,0.113-1.084-0.025c-0.243-0.299-0.416-0.626-0.63-1.008
		c-0.119-0.211-0.15-0.401-0.278-0.656c-0.09-0.181-0.306-0.346-0.428-0.554c-0.283-0.481-0.619-1.063-1.336-1.059
		c-0.155,0.001-0.323,0.081-0.504,0.101c-0.107,0.012-0.211-0.013-0.328,0c-0.264,0.03-0.599,0.221-0.781,0
		c0.139-0.339,0.186-0.771,0.428-1.008c0.249-0.065,0.454,0.131,0.681,0.101c0.182-0.024,0.506-0.28,0.53-0.429
		c0.024-0.153-0.139-0.295-0.126-0.453c0.015-0.188,0.274-0.364,0.302-0.605c0.041-0.355-0.081-0.616-0.025-1.008
		c-0.203-0.38-0.565-0.492-0.529-0.957c0.012-0.164,0.137-0.314,0.176-0.504c0.043-0.206,0.115-0.518,0.101-0.732
		c-0.029-0.429-0.337-0.74-0.529-1.109c-0.169-0.325-0.38-0.786-0.732-0.882c-0.189-0.053-0.455-0.008-0.63-0.076
		c-0.115-0.045-0.218-0.142-0.327-0.202c-0.516-0.283-1.199-0.517-1.942-0.302c-0.11,0.032-0.731,0.313-0.857,0.428
		c-0.139,0.13-0.349,0.513-0.353,0.731c-0.004,0.185,0.094,0.401,0.126,0.58c0.037,0.207,0.04,0.467,0.101,0.656
		c0.174,0.545,0.912,0.437,1.16,0.983c0.108,0.238,0.129,0.514,0.151,0.933c-0.112,0.133-0.308,0.195-0.479,0.177
		c-0.129-0.014-0.245-0.136-0.429-0.202c-0.161-0.057-0.349-0.069-0.479-0.126c-0.17-0.075-0.294-0.243-0.454-0.302
		c-0.104-0.039-0.233-0.018-0.327-0.05c-0.166-0.058-0.283-0.28-0.454-0.177c-0.215,0.54,0.061,1.193-0.025,1.664
		c-0.036,0.199-0.274,0.609-0.58,0.605c-0.229-0.003-0.379-0.177-0.63-0.202c-0.316-0.031-0.702-0.162-0.957-0.176
		c-0.418-0.022-1.14,0.614-1.134,1.059c0.006,0.479,0.477,0.759,0.227,1.336c-0.083,0.192-0.393,0.394-0.378,0.605
		c0.013,0.174,0.318,0.438,0.53,0.555c0.258,0.142,0.475,0.152,0.605,0.403c0.14,0.271,0.073,0.486,0.202,0.832
		c0.057,0.155,0.156,0.289,0.252,0.428c0.084,0.122,0.304,0.251,0.151,0.404c-0.201,0.201-0.314-0.246-0.53-0.076
		c-0.185,0.349,0.344,0.528,0.353,0.782c0.003,0.081-0.157,0.36-0.252,0.504c-0.129,0.197-0.311,0.264-0.353,0.479
		c-0.027,0.138,0.053,0.36,0.025,0.554c-0.037,0.257-0.258,0.411-0.252,0.605c0.006,0.238,0.265,0.351,0.302,0.555
		c0.081,0.445-0.05,0.61-0.328,0.807c-0.038,0.22,0.254,0.227,0.151,0.428c-0.22-0.11-0.321,0.038-0.504,0.126
		c-0.118,0.057-0.201,0.048-0.252,0.101c-0.115,0.12-0.115,0.353-0.227,0.529c-0.117,0.186-0.335,0.291-0.58,0.504
		c-0.251,0.22-0.511,0.589-0.529,0.882c-0.018,0.277,0.078,0.502,0.05,0.732c-0.064,0.521-0.325,0.845-0.606,1.21
		c-0.156,0.204-0.265,0.388-0.453,0.453c-0.131,0.046-0.307,0.024-0.454,0.076c-0.314,0.111-0.465,0.569-1.008,0.404
		c-0.159,0.076-0.216,0.246-0.328,0.428c-0.09,0.146-0.277,0.27-0.303,0.428c-0.017,0.102,0.031,0.214,0.026,0.302
		c-0.02,0.286-0.131,0.483-0.227,0.731c-0.059,0.154-0.083,0.351-0.152,0.454c-0.086,0.128-0.376,0.144-0.453,0.302
		c-0.05,0.103,0.019,0.332,0,0.504c-0.032,0.271-0.197,0.638-0.202,0.882c-0.003,0.148,0.061,0.271,0.051,0.403
		c-0.048,0.617-0.786,0.968-1.008,1.564c-0.069,0.185-0.021,0.477-0.076,0.605c-0.097,0.223-0.78,0.412-1.083,0.428
		c-0.916,0.051-1.21-0.653-1.816-1.059c-0.127-0.085-0.327-0.132-0.504-0.252c-0.356-0.242-0.43-0.511-1.084-0.479
		c-0.18,0.009-0.355,0.101-0.555,0.101c-0.244,0-0.563-0.021-0.782-0.076c-0.167-0.041-0.302-0.18-0.454-0.202
		c-0.153-0.022-0.272,0.045-0.404,0.025c-0.145-0.022-0.35-0.167-0.554-0.278c-0.43-0.233-0.936-0.284-1.109-0.756
		c-0.102-0.277-0.045-0.654-0.152-0.957c-0.043-0.123-0.157-0.278-0.227-0.429c-0.204-0.439-0.48-1.064-0.933-1.185
		c-0.403-0.108-0.725,0.15-1.185,0.076c-0.137-0.078-0.274-0.184-0.428-0.302c-0.143-0.109-0.311-0.163-0.454-0.277
		c-0.19-0.152-0.274-0.387-0.53-0.479c-0.087-0.031-0.19-0.012-0.327-0.05c-0.051-0.015-0.13-0.108-0.227-0.152
		c-0.09-0.041-0.204-0.039-0.278-0.076c-0.232-0.115-0.761-0.458-0.832-0.706c-0.147-0.523,0.222-1.075,0.152-1.437
		c-0.253,0.052-0.227,0.236-0.404,0.353c-0.104,0.069-0.243,0.106-0.353,0.201c-0.131,0.113-0.179,0.213-0.328,0.227
		c-0.311,0.029-0.623-0.213-0.731-0.378c-0.099-0.151-0.157-0.464-0.201-0.732c-0.031-0.186-0.033-0.668-0.152-0.756
		c-0.175-0.13-0.607,0.069-0.781-0.025c-0.369-0.188,0.01-0.695-0.101-0.958c-0.19-0.022-0.39,0.048-0.479,0.202
		c-0.093,0.158,0.028,0.399-0.152,0.504c-0.251-0.052-0.283-0.321-0.53-0.378c-0.241,0.007-0.304,0.081-0.453,0.05
		c-0.324-0.066-0.311-0.569-0.656-0.555c-0.516,0.022-0.305,0.991-0.807,1.008c-0.304,0.01-0.307-0.278-0.604-0.378
		c-0.159-0.054-0.196,0.031-0.328,0c-0.179-0.042-0.231-0.252-0.428-0.252c-0.241-0.001-0.507,0.353-0.706,0.529
		c-0.196,0.173-0.474,0.394-0.605,0.63c-0.195,0.354-0.151,0.881-0.504,1.034c-0.212-0.048-0.269-0.253-0.327-0.454
		c0-0.017,0-0.034,0-0.05c0.041-0.068,0.041-0.31,0-0.378c0-0.118,0-0.236,0-0.353c0.155-0.337,0.256-0.747,0.403-1.16
		c0.053-0.149,0.179-0.317,0.251-0.479c0.056-0.121,0.077-0.258,0.127-0.353c0.114-0.217,0.483-0.462,0.63-0.681
		c0.09-0.133,0.137-0.342,0.228-0.428c0.086-0.083,0.272-0.128,0.378-0.202c0.116-0.081,0.2-0.231,0.328-0.328
		c0.278-0.209,0.653-0.477,0.858-0.479c0.202-0.002,0.339,0.192,0.528,0.126c0.179-0.062,0.14-0.449,0.354-0.504
		c0.129-0.034,0.346,0.111,0.529,0.101c0.106-0.006,0.251-0.204,0.404-0.126c0.176,0.09-0.015,0.261,0.075,0.404
		c0.364-0.107,0.95,0.008,1.059-0.353c-0.157-0.186-0.509,0.19-0.605-0.126c0.136-0.305,0.537-0.234,0.832-0.302
		c0.195-0.044,0.37-0.141,0.58-0.151c0.11-0.005,0.238,0.043,0.352,0.025c0.34-0.054,0.618-0.432,0.959-0.454
		c0.164-0.01,0.303,0.101,0.479,0.126c0.119,0.018,0.253-0.017,0.378,0c0.16,0.022,0.307,0.111,0.454,0.126
		c0.277,0.03,0.752-0.001,0.984-0.05c0.291-0.062,0.538-0.294,0.856-0.328c0.115-0.012,0.307,0.038,0.454,0.025
		c0.137-0.012,0.272-0.087,0.429-0.101c0.144-0.013,0.281,0.036,0.454,0.05c0.316,0.027,0.669-0.062,0.983-0.05
		c0.092,0.003,0.161,0.052,0.252,0.05c0.26-0.003,0.523-0.09,0.782-0.101c0.479-0.02,0.818,0.053,1.26-0.025
		c0.335-0.059,0.848-0.131,1.058-0.252c0.235-0.135,0.633-0.665,0.782-0.933c0.098-0.176,0.132-0.388,0.227-0.58
		c0.201-0.411,0.627-1.206,1.033-1.387c0.118-0.052,0.273-0.045,0.404-0.101c0.258-0.11,0.482-0.341,0.731-0.504
		c0.476-0.311,1.072-0.563,1.563-0.882c0.249-0.162,0.532-0.302,0.731-0.479c0.117-0.104,0.227-0.436,0.404-0.479
		c0.233-0.057,0.553-0.229,0.731-0.202c0.241,0.036,0.436,0.505,0.655,0.504c0.187-0.001,0.296-0.25,0.454-0.302
		c0.386-0.127,0.612,0.075,0.933,0.227c0.105,0.05,0.275,0.099,0.353,0.151c0.139,0.092,0.178,0.28,0.328,0.403
		c0.084,0.069,0.259,0.112,0.378,0.202c0.255,0.192,0.35,0.501,0.58,0.58c0.187,0.064,1.124,0.102,1.437,0.025
		c0.181-0.044,0.332-0.213,0.504-0.277c0.304-0.114,0.637-0.141,0.63-0.454c-0.004-0.193-0.218-0.33-0.353-0.454
		c-0.179-0.03-0.374-0.014-0.428-0.202c-0.085-0.287,0.302-0.397,0.403-0.731c0.041-0.133,0.038-0.345,0.076-0.428
		c0.11-0.244,0.467-0.323,0.605-0.58c0.115-0.215,0.075-0.399,0.252-0.53c0.121-0.054,0.341-0.012,0.504-0.025
		c0.162-0.276,0.764-0.511,0.907-0.832c0.095-0.213,0.086-0.54,0.176-0.807c0.043-0.125,0.097-0.222,0.126-0.353
		c0.036-0.162,0.038-0.328,0.101-0.453c0.248-0.499,1.05-0.768,1.033-1.387c-0.007-0.264-0.253-0.518-0.252-0.756
		c0.001-0.237,0.19-0.635,0.328-0.933c0.144-0.31,0.222-0.652,0.353-0.907c0.106-0.206,0.299-0.349,0.379-0.53
		c0.061-0.138,0.072-0.34,0.125-0.453c0.076-0.161,0.239-0.329,0.379-0.53c0.132-0.19,0.333-0.396,0.504-0.404
		c0.197-0.008,0.365,0.181,0.555,0.202c0.6,0.065,1.032-0.378,1.387-0.656c0.264-0.206,0.487-0.448,0.731-0.655
		c0.162,0.012,0.191,0.012,0.353,0c0.152-0.157,0.377-0.288,0.605-0.454c0.206-0.15,0.425-0.441,0.655-0.479
		c0.283-0.047,0.532,0.108,0.807,0c0.457-0.18,0.25-0.813-0.353-0.732c-0.166,0.023-0.39,0.257-0.555,0.328
		c-0.168,0.073-0.378,0.059-0.58,0.126c-0.194,0.065-0.362,0.26-0.58,0.328c-0.345,0.107-0.717,0.104-0.933,0.202
		c-0.192,0.087-0.373,0.406-0.605,0.227c-0.05-0.239,0.189-0.33,0.328-0.479c0.077-0.083,0.223-0.383,0.403-0.428
		c0.148-0.038,0.348,0.094,0.53,0.05c0.356-0.087,0.365-0.805,0.731-0.807c0.23-0.001,0.257,0.3,0.479,0.303
		c0.243,0.002,0.449-0.332,0.655-0.404c0.189-0.066,0.49-0.076,0.756-0.101c0.25-0.024,0.539,0.007,0.732-0.051
		c0.173-0.052,0.411-0.312,0.504-0.479c0.123-0.221,0.072-0.396,0.252-0.504c0.157-0.094,0.486-0.156,0.655-0.176
		c0.303-0.036,0.635-0.008,0.958-0.025c0.324-0.017,0.635-0.05,0.983,0c0.244,0.125,0.364,0.352,0.605,0.479
		c0.168,0.089,0.376,0.101,0.554,0.201c0.329,0.185,0.633,0.587,0.958,0.857c0.35,0.292,0.684,0.56,1.084,0.731
		c0.142,0.061,0.456,0.225,0.63,0.202c0.243-0.033,0.443-0.49,0.731-0.454c0.179,0.023,0.176,0.278,0.353,0.353
		c0.091,0.039,0.345,0.074,0.454,0.076c0.243,0.004,0.497-0.125,0.756-0.076c0.222,0.041,0.311,0.371,0.554,0.202
		c0.241-0.168-0.13-0.47,0.026-0.656c0.143-0.171,0.316,0.034,0.58,0.05c0.105,0.006,0.225-0.061,0.302-0.05
		c0.113,0.015,0.302,0.235,0.378,0.176c0.172-0.136,0.61-0.289,0.756-0.58c0.186-0.37,0.061-0.77,0.151-1.285
		c0.055-0.316,0.351-0.465,0.327-0.756c-0.014-0.18-0.22-0.283-0.327-0.53c-0.107-0.245-0.071-0.564-0.126-0.807
		c-0.055-0.241-0.222-0.356-0.202-0.605c0.016-0.207,0.203-0.209,0.227-0.453c0.01-0.096-0.059-0.276-0.076-0.428
		c-0.041-0.39-0.06-1.093,0.025-1.488c0.078-0.361,0.193-0.584,0.378-0.983c0.139-0.3,0.31-0.856,0.53-0.832
		c0.141,0.015,0.291,0.527,0.353,0.731c0.1,0.329,0.262,0.531,0.278,0.782c0.006,0.097-0.06,0.224-0.051,0.353
		c0.01,0.129,0.129,0.288,0.152,0.454c0.049,0.352-0.018,0.848,0.328,0.807c0.211-0.267-0.157-1.358,0.302-1.387
		c0.278-0.017,0.362,0.414,0.428,0.731c0.061,0.289,0.164,0.728,0.151,0.983c-0.015,0.288-0.337,0.667,0.025,0.832
		c0.257,0.08,0.473-0.098,0.681-0.152c0.295,0.214,0.258,0.608,0.302,0.908c0.05,0.342,0.111,0.622,0.252,0.958
		c0.124,0.295,0.206,0.608,0.252,0.958c0.044,0.342,0.174,0.675,0.202,0.984c0.023,0.254,0.003,0.487,0.05,0.731
		c0.042,0.216,0.162,0.444,0.151,0.681c-0.007,0.159-0.123,0.294-0.151,0.453c-0.026,0.15,0.008,0.321-0.025,0.479
		c-0.025,0.122-0.108,0.231-0.126,0.353c-0.029,0.191,0.027,0.396,0,0.58c-0.024,0.169-0.13,0.313-0.151,0.479
		c-0.05,0.388,0.02,0.833-0.051,1.21c-0.027,0.143-0.097,0.272-0.126,0.428c-0.027,0.148,0.004,0.31-0.025,0.454
		c-0.04,0.2-0.23,0.368-0.252,0.58c-0.041,0.39,0.169,0.828,0.202,1.235c0.023,0.295-0.012,0.598,0.05,0.908
		c0.057,0.281,0.166,0.554,0.176,0.807c0.006,0.137-0.042,0.253-0.025,0.378c0.018,0.131,0.174,0.287,0.151,0.428
		c-0.03,0.188-0.267,0.155-0.328,0.353c0.114,0.22-0.008,0.439,0,0.68c0.008,0.236,0.116,0.446,0.076,0.706
		c-0.072,0.459-0.521,1.1-0.277,1.462c0.062,0.091,0.168,0.069,0.328,0.152c0.217,0.111,0.472,0.331,0.782,0.277
		c-0.008-0.505-0.255-0.988-0.277-1.563c0.364-0.581,0.59,0.155,0.756,0.58c0.138,0.35,0.443,0.627,0.504,1.059
		c0.051,0.353-0.078,0.74-0.126,1.159c-0.028,0.244,0.017,0.489-0.025,0.63c-0.075,0.248-0.32,0.375-0.378,0.58
		c-0.025,0.088-0.023,0.234-0.051,0.353c-0.052,0.227-0.172,0.43,0,0.656c-0.032,0.178-0.221,0.199-0.252,0.378
		c0.09,0.167,0.32,0.297,0.378,0.554c0.025,0.112-0.019,0.23,0,0.353c0.033,0.206,0.311,0.479,0.051,0.605
		c-0.182-0.052-0.209-0.327-0.353-0.479c-0.128-0.136-0.421-0.344-0.555-0.327c-0.241,0.03-0.148,0.39-0.454,0.403
		c-0.176-0.054-0.097-0.258-0.176-0.428c-0.072-0.155-0.221-0.213-0.252-0.378c-0.087-0.458,0.115-0.838,0.101-1.235
		c-0.172-0.018-0.272,0.196-0.327,0.302c-0.189,0.36-0.163,0.653-0.152,1.159c0.006,0.26-0.078,0.558,0.076,0.782
		c0.097,0.141,0.31,0.134,0.428,0.252c0.142,0.143,0.286,0.471,0.252,0.681c-0.019,0.115-0.155,0.276-0.252,0.277
		c-0.229,0.004-0.156-0.324-0.404-0.328c-0.128,0.213,0.14,0.777,0.353,0.807c0.155,0.022,0.245-0.183,0.403-0.176
		c0.264,0.012,0.26,0.371,0.53,0.328c0.136-0.173-0.029-0.354,0-0.53c0.041-0.248,0.338-0.47,0.53-0.58
		c0.136,0.109,0.045,0.339,0.025,0.504c0.257,0.185,0.356,0.53,0.404,1.008c0.017,0.17,0.084,0.397-0.076,0.479
		c-0.239,0.041-0.382-0.353-0.656-0.278c-0.085,0.339,0.373,0.451,0.555,0.731c0.08,0.124,0.134,0.3,0.201,0.479
		c0.059,0.155,0.206,0.327,0.202,0.454c-0.004,0.139-0.118,0.164-0.176,0.302c-0.052,0.124,0.036,0.287-0.126,0.328
		c-0.506-0.292-0.215-1.381-0.731-1.664c-0.346,0.063-0.675-0.171-0.908,0.025c-0.166,0.14-0.053,0.456-0.227,0.529
		c-0.232,0.099-0.232-0.306-0.504-0.201c-0.16,0.267,0.152,0.584,0.277,0.831c0.134,0.265,0.293,0.6,0.605,0.63
		c0.256-0.133,0.058-0.63,0.327-0.705c0.146-0.041,0.474,0.152,0.53,0.201c0.295,0.263,0.714,1.181,0.656,1.84
		c-0.011,0.125-0.088,0.252-0.101,0.378c-0.044,0.434,0.187,0.945,0,1.286c0.16,0.274-0.022,0.602,0.026,0.983
		c-0.173,0.294-0.542,0.213-0.706,0.656c-0.045,0.12-0.013,0.271-0.05,0.428c-0.028,0.117-0.166,0.244-0.227,0.378
		c-0.087,0.191-0.067,0.337-0.201,0.378c-0.132,0.04-0.217-0.139-0.353-0.126c-0.09,0.109-0.225,0.018-0.353,0.076
		c-0.234,0.109-0.216,0.383-0.328,0.655c-0.078,0.191-0.318,0.598-0.504,0.58c-0.125-0.012-0.344-0.383-0.404-0.504
		c-0.042-0.086-0.248-0.511-0.227-0.655c0.035-0.238,0.517-0.331,0.504-0.656c-0.006-0.141-0.091-0.274-0.278-0.278
		c-0.331-0.005-0.344,0.371-0.63,0.378c-0.342,0.01-0.366-0.187-0.579-0.479c0.085-0.209,0.204-0.385,0.227-0.656
		c-0.192-0.161-0.26,0.265-0.504,0.126c-0.086-0.405,0.115-0.714,0.227-1.084c0.035-0.116,0.021-0.283,0.076-0.378
		c0.083-0.143,0.328-0.185,0.454-0.303c0.146-0.136,0.354-0.408,0.353-0.63c-0.001-0.311-0.388-0.762-0.025-1.008
		c0.577,0.171,0.149,0.979,0.353,1.513c0.076,0.199,0.286,0.267,0.378,0.429c0.186,0.326,0.212,0.856,0.58,0.807
		c0.185-0.025,0.183-0.284,0.278-0.428c0.129-0.197,0.583-0.348,0.605-0.63c0.011-0.145-0.111-0.25-0.126-0.404
		c-0.031-0.326,0.131-0.689,0-0.983c-0.078-0.137-0.204-0.045-0.353-0.151c-0.122-0.088-0.157-0.295-0.277-0.378
		c-0.142-0.097-0.318-0.077-0.428-0.202c-0.183-0.207-0.213-0.645-0.302-0.907c-0.04-0.117-0.178-0.265-0.177-0.378
		c0.001-0.208,0.28-0.297,0.177-0.53c-0.27-0.02-0.379,0.285-0.504,0.479c-0.135,0.209-0.269,0.43-0.504,0.504
		c-0.435-0.205,0.023-0.532,0.025-0.857c0.003-0.358-0.681-0.88-0.126-1.185c0.294,0.076,0.34,0.4,0.63,0.479
		c-0.06-0.356-0.36-0.666-0.454-1.084c-0.039-0.176-0.029-0.347-0.075-0.504c-0.089-0.302-0.311-0.512-0.429-0.831
		c-0.046-0.125-0.032-0.274-0.075-0.404c-0.102-0.304-0.284-0.669-0.454-0.983c-0.174-0.321-0.357-0.683-0.53-0.882
		c-0.093-0.108-0.424-0.388-0.529-0.378c-0.15,0.013-0.2,0.295-0.353,0.302c-0.093-0.006-0.294-0.164-0.428-0.05
		c-0.123,0.103-0.024,0.31-0.05,0.529c-0.048,0.385-0.366,0.637-0.53,0.933c-0.123,0.223-0.271,0.555-0.302,0.807
		c-0.043,0.346,0.101,0.734-0.176,0.781c-0.267,0.046-0.362-0.326-0.53-0.353c-0.246,0.187-0.364-0.127-0.58-0.126
		c-0.175,0.001-0.437,0.215-0.453,0.403c-0.022,0.254,0.25,0.626,0.504,0.731c0.302,0.125,0.712,0.072,0.933,0.302
		c-0.032,1.175,0.534,2.168,1.739,2.093c0.119-0.008,0.272-0.075,0.404-0.05c0.195,0.037,0.358,0.372,0.605,0.327
		c0.101,0.329,0.629,0.315,0.706,0.656c0.064,0.285-0.202,0.608-0.176,0.983c0.008,0.122,0.118,0.281,0.101,0.404
		c-0.034,0.246-0.338,0.395-0.479,0.58c-0.125,0.164-0.085,0.336-0.252,0.378c-0.283-0.049-0.29-0.248-0.554-0.227
		c-0.231,0.019-0.406,0.258-0.429,0.378c-0.034,0.184,0.064,0.447,0.151,0.63c0.16,0.337,0.641,0.626,0.58,0.908
		c-0.048,0.222-0.754,0.396-1.008,0.428c-0.272,0.035-0.481-0.037-0.731-0.025c-0.425,0.033-0.382,0.568-0.605,0.832
		c-0.068,0.079-0.24,0.111-0.328,0.177c-0.171,0.128-0.171,0.283-0.353,0.302c-0.435,0.047-0.472-0.395-0.958-0.353
		c-0.188-0.091-0.177-0.321-0.428-0.302c-0.398,0.029-0.093,0.601-0.404,0.756c-0.167,0.084-0.291-0.014-0.529-0.076
		c-0.233,0.195-0.605,0.194-0.605-0.151C273.737,150.092,273.962,150.034,274.015,149.822z M274.67,122.571
		c0.122,0.119,0.381-0.05,0.277-0.227C274.855,122.326,274.632,122.376,274.67,122.571z M272.376,140.167
		c0.103-0.105,0.073-0.448,0.05-0.681c-0.017-0.165-0.052-0.361-0.176-0.378C272.13,139.37,272.043,140.085,272.376,140.167z
		 M272.804,138.856c0.156,0.198,0.474,0.11,0.53-0.101c0.022-0.083-0.061-0.193-0.051-0.328c0.011-0.143,0.141-0.285,0.151-0.403
		c0.017-0.201-0.082-0.405-0.176-0.479c-0.151-0.008-0.175,0.111-0.328,0.101c-0.175-0.245-0.761-0.115-0.782,0.126
		c-0.022,0.256,0.647,0.388,0.706,0.731C272.876,138.627,272.784,138.691,272.804,138.856z M271.796,138.503
		c0.127-0.358-0.087-0.689-0.126-0.983c-0.024-0.175,0.036-0.494-0.227-0.454c-0.214,0.032-0.136,0.363-0.076,0.555
		C271.494,138.019,271.602,138.271,271.796,138.503z M273.712,137.394c0.214,0.502,0.873-0.099,0.933-0.328
		c0.107-0.409-0.3-0.99-0.429-1.462c-0.073-0.266-0.079-0.519-0.303-0.58c-0.395,0.239,0.087,0.71,0.025,1.059
		c-0.031,0.176-0.272,0.279-0.302,0.454C273.616,136.656,273.692,137.346,273.712,137.394z M273.309,137.041
		c0.123-0.104-0.015-0.67-0.126-0.832c-0.077-0.111-0.265-0.187-0.404-0.302c-0.143-0.119-0.254-0.252-0.378-0.353
		c-0.112-0.091-0.849-0.602-0.933-0.202c-0.036,0.171,0.318,0.521,0.454,0.555c0.462,0.114,0.792,0.322,1.008,0.68
		C273.056,136.794,273.04,137.007,273.309,137.041z M276.132,133.889c0.01,0.281,0.842,0.472,0.731,0
		C276.79,133.574,276.118,133.497,276.132,133.889z M257.225,132.528c0.038,0.013,0.064,0.037,0.101,0.05
		C257.577,132.502,257.234,132.26,257.225,132.528z M278.325,121.865c0.048,0.006,0.056-0.029,0.101-0.025
		c0.001-0.077,0.015-0.166-0.076-0.152C278.278,121.724,278.265,121.822,278.325,121.865z M282.284,148.36
		c-0.015,0.124,0.024,0.194,0.151,0.176C282.513,148.425,282.41,148.261,282.284,148.36z M284.754,145.461
		c0.035-0.033,0.035-0.119,0-0.152c-0.033,0-0.067,0-0.101,0C284.63,145.417,284.695,145.436,284.754,145.461z M282.813,135.882
		c0.054,0.084,0.127,0.213,0.252,0.151c0.131-0.278,0.031-0.749,0.076-1.159c0.329-0.233,0.38-0.623-0.151-0.656
		C282.608,134.687,283.167,135.397,282.813,135.882z M280.216,131.369c0.05,0.143,0.024,0.342,0.177,0.378
		c0.094-0.118,0.222-0.239,0.227-0.378c0.006-0.183-0.155-0.271-0.252-0.454c-0.113-0.213-0.14-0.509-0.328-0.529
		C279.963,130.776,280.133,131.127,280.216,131.369z M282.032,131.242c0.027,0.161-0.045,0.327,0.101,0.429
		c0.555-0.12,0.216-0.888,0.176-1.336c-0.158-0.094-0.284-0.22-0.504-0.252C281.716,130.431,281.965,130.85,282.032,131.242z
		 M256.267,138.805c0.032,0.199,0.49,0.141,0.379-0.101C256.561,138.522,256.237,138.617,256.267,138.805z"/>
	<path style="fill:#2D93BA;" d="M278.426,121.84c-0.045-0.004-0.054,0.031-0.101,0.025c-0.06-0.043-0.047-0.14,0.025-0.176
		C278.441,121.674,278.427,121.763,278.426,121.84z"/>
	<path style="fill:#2D93BA;" d="M276.939,121.083c-0.165-0.054-0.237-0.199-0.302-0.353c0.036-0.048,0.078-0.09,0.126-0.126
		C277.002,120.615,277.178,120.955,276.939,121.083z"/>
</g>
<ellipse style="fill:#E56353;" cx="274.381" cy="229.75" rx="11.837" ry="11.853"/>
<ellipse style="fill:#FCD462;" cx="274.381" cy="214.292" rx="11.837" ry="11.853"/>
<g>
	<rect x="241.152" y="116.506" style="fill:#FFFFFF;" width="4.71" height="38.533"/>
	<rect x="210.125" y="116.485" style="fill:#FFFFFF;" width="4.71" height="19.604"/>
	<rect x="210.176" y="151.849" style="fill:#FFFFFF;" width="4.71" height="19.604"/>
	<rect x="210.12" y="185.636" style="fill:#FFFFFF;" width="4.71" height="19.604"/>
	<rect x="210.084" y="221" style="fill:#FFFFFF;" width="4.71" height="19.604"/>
	<rect x="224.225" y="116.485" style="fill:#FFFFFF;" width="4.71" height="57.902"/>
</g>
<path style="fill:#FCD462;" d="M282.648,136.398v-19.495c0-1.073-0.868-1.942-1.939-1.942h-19.467c-1.071,0-1.939,0.869-1.939,1.942
	v19.495c0,1.072,0.868,1.942,1.939,1.942h19.467C281.78,138.339,282.648,137.47,282.648,136.398z"/>
<path style="fill:#DC8744;" d="M275.008,138.339h2.029v-5.627h5.628v-2.029h-5.628v-8.064h5.628v-2.029h-5.628v-5.628h-2.029v5.628
	h-8.064v-5.628h-2.029v5.628h-5.628v2.029h5.628v8.064h-5.628v2.029h5.628v5.627h2.029v-5.627h8.064V138.339z M266.943,130.683
	v-8.064h8.064v8.064H266.943z"/>
<path style="fill:#FCD462;" d="M140.477,166.775v210.95c0,4.88,3.955,8.836,8.835,8.836H342.21c4.878,0,8.832-3.955,8.832-8.833
	V166.775H140.477z"/>
<path style="fill:#F6C358;" d="M140.477,336.254v41.47c0,4.88,3.955,8.836,8.835,8.836H342.21c4.878,0,8.832-3.955,8.832-8.833
	v-41.472H140.477z"/>
<g>
	<circle style="fill:#DC8744;" cx="183.967" cy="189.645" r="9.124"/>
	<circle style="fill:#DC8744;" cx="307.558" cy="189.645" r="9.124"/>
</g>
<path style="fill:#F6C358;" d="M245.757,298.133c-36.895,0-66.91-32.635-66.91-72.745v-35.75c0-2.83,2.29-5.12,5.12-5.12
	s5.12,2.29,5.12,5.12v35.75c0,34.465,25.42,62.505,56.67,62.505s56.675-28.04,56.675-62.505v-35.75c0-2.83,2.29-5.12,5.12-5.12
	c2.83,0,5.12,2.29,5.12,5.12v35.75C312.672,265.498,282.652,298.133,245.757,298.133z"/>
<path style="fill:#FFFFFF;" d="M245.757,289.223c-36.895,0-66.91-30.02-66.91-66.915v-32.67c0-2.83,2.29-5.12,5.12-5.12
	s5.12,2.29,5.12,5.12v32.67c0,31.25,25.42,56.675,56.67,56.675s56.675-25.425,56.675-56.675v-32.67c0-2.83,2.29-5.12,5.12-5.12
	c2.83,0,5.12,2.29,5.12,5.12v32.67C312.672,259.203,282.652,289.223,245.757,289.223z"/>
<g>
</g>
<g>
</g>
<g>
</g>
<g>
</g>
<g>
</g>
<g>
</g>
<g>
</g>
<g>
</g>
<g>
</g>
<g>
</g>
<g>
</g>
<g>
</g>
<g>
</g>
<g>
</g>
<g>
</g>
</svg>
