<?xml version="1.0" encoding="iso-8859-1"?>
<!-- Generator: Adobe Illustrator 19.0.0, SVG Export Plug-In . SVG Version: 6.00 Build 0)  -->
<svg version="1.1" id="Capa_1" xmlns="http://www.w3.org/2000/svg" xmlns:xlink="http://www.w3.org/1999/xlink" x="0px" y="0px"
	 viewBox="0 0 491.52 491.52" style="enable-background:new 0 0 491.52 491.52;" xml:space="preserve">
<circle style="fill:#334D5C;" cx="245.76" cy="245.76" r="245.76"/>
<path style="opacity:0.1;enable-background:new    ;" d="M274.176,161.741l-29.286-29.286c-2.458-2.816-5.12-5.478-7.936-7.936
	c-13.978-12.186-32.256-19.558-52.224-19.558c-43.981,0-79.77,35.789-79.77,79.769c0,23.296,10.035,44.288,26.01,58.88l0.256,0.256
	l45.517,45.517v65.331h-0.614c-1.587,0-2.867,1.28-2.867,2.867v10.906h-11.52v18.074l104.077,104.077
	c100.645-8.138,184.139-76.859,213.944-169.698l-93.202-93.202L274.176,161.741z"/>
<ellipse style="fill:#27A2DB;" cx="184.73" cy="184.73" rx="75.75" ry="77.21"/>
<path style="fill:#1C75A1;" d="M184.724,104.96c-43.981,0-79.764,35.782-79.764,79.764s35.784,79.764,79.764,79.764
	s79.764-35.782,79.764-79.764S228.705,104.96,184.724,104.96z M188.737,154.277c9.261-0.211,18.51-1.114,27.66-2.786
	c2.392,8.868,3.842,18.791,4.147,29.221h-31.807V154.277z M188.737,146.254v-32.766c10.295,2.409,19.41,13.924,25.238,30.277
	C205.622,145.241,197.186,146.053,188.737,146.254z M180.712,113.488v32.765c-8.447-0.202-16.883-1.013-25.236-2.488
	C161.304,127.413,170.418,115.897,180.712,113.488z M180.712,154.277v26.435h-31.803c0.306-10.43,1.755-20.352,4.147-29.22
	C162.204,153.163,171.452,154.066,180.712,154.277z M140.887,180.712h-27.699c0.753-13.527,5.203-26.073,12.455-36.591
	c6.405,2.279,12.898,4.209,19.466,5.724C142.653,159.211,141.179,169.622,140.887,180.712z M140.887,188.737
	c0.292,11.09,1.766,21.501,4.222,30.867c-6.569,1.515-13.062,3.445-19.466,5.724c-7.251-10.517-11.701-23.064-12.455-36.591H140.887
	z M148.909,188.737h31.803v26.435c-9.26,0.211-18.508,1.114-27.656,2.785C150.664,209.089,149.215,199.166,148.909,188.737z
	 M180.712,223.197v32.763c-10.295-2.409-19.408-13.923-25.235-30.276C163.829,224.21,172.265,223.399,180.712,223.197z
	 M188.737,255.96v-32.763c8.449,0.202,16.885,1.013,25.238,2.488C208.147,242.037,199.031,253.552,188.737,255.96z M188.737,215.172
	v-26.435h31.807c-0.306,10.43-1.756,20.353-4.148,29.221C207.247,216.286,197.998,215.383,188.737,215.172z M228.566,188.737h27.695
	c-0.753,13.527-5.203,26.073-12.455,36.591c-6.403-2.279-12.895-4.208-19.462-5.723C226.8,210.238,228.274,199.827,228.566,188.737z
	 M228.566,180.712c-0.292-11.09-1.766-21.501-4.222-30.867c6.567-1.515,13.059-3.445,19.463-5.723
	c7.25,10.517,11.7,23.063,12.454,36.59L228.566,180.712L228.566,180.712z M238.557,137.462c-5.447,1.84-10.957,3.423-16.523,4.689
	c-3.498-10.22-8.229-18.806-13.861-25.152C220.019,121.114,230.443,128.23,238.557,137.462z M161.281,116.998
	c-5.632,6.347-10.364,14.933-13.863,25.154c-5.567-1.266-11.076-2.85-16.526-4.69C139.008,128.229,149.434,121.112,161.281,116.998z
	 M130.893,231.988c5.448-1.84,10.959-3.423,16.526-4.689c3.498,10.221,8.23,18.806,13.862,25.153
	C149.434,248.337,139.008,241.22,130.893,231.988z M208.173,252.45c5.631-6.346,10.363-14.931,13.861-25.151
	c5.566,1.266,11.074,2.849,16.522,4.689C230.441,241.219,220.018,248.335,208.173,252.45z"/>
<rect x="161.75" y="227.74" style="fill:#FCD462;" width="224.81" height="18.08"/>
<g>
	<rect x="161.75" y="368.48" style="fill:#EBF0F3;" width="224.81" height="18.08"/>
	<polygon style="fill:#EBF0F3;" points="274.156,161.753 161.753,227.75 386.56,227.75 	"/>
</g>
<polygon style="fill:#E1E6E9;" points="206.855,215.487 274.158,175.972 341.46,215.487 "/>
<rect x="176.77" y="256.36" style="fill:#EBF0F3;" width="35.29" height="103.42"/>
<g>
	<path style="fill:#E1E6E9;" d="M212.7,354.727h-36.578c-1.585,0-2.87,1.285-2.87,2.87v10.885h42.319v-10.885
		C215.571,356.012,214.285,354.727,212.7,354.727z"/>
	<path style="fill:#E1E6E9;" d="M173.252,245.828v10.885c0,1.585,1.285,2.87,2.87,2.87H212.7c1.585,0,2.87-1.285,2.87-2.87v-10.885
		L173.252,245.828L173.252,245.828z"/>
	<path style="fill:#E1E6E9;" d="M184.744,348.691c-1.13,0-2.044-0.914-2.044-2.044v-77.17c0-1.13,0.914-2.044,2.044-2.044
		s2.044,0.914,2.044,2.044v77.17C186.787,347.777,185.873,348.691,184.744,348.691z"/>
	<path style="fill:#E1E6E9;" d="M194.411,348.691c-1.13,0-2.044-0.914-2.044-2.044v-77.17c0-1.13,0.914-2.044,2.044-2.044
		s2.044,0.914,2.044,2.044v77.17C196.455,347.777,195.541,348.691,194.411,348.691z"/>
	<path style="fill:#E1E6E9;" d="M204.079,348.691c-1.13,0-2.044-0.914-2.044-2.044v-77.17c0-1.13,0.914-2.044,2.044-2.044
		s2.044,0.914,2.044,2.044v77.17C206.123,347.777,205.209,348.691,204.079,348.691z"/>
</g>
<rect x="256.51" y="256.36" style="fill:#EBF0F3;" width="35.29" height="103.42"/>
<g>
	<path style="fill:#E1E6E9;" d="M292.445,354.727h-36.578c-1.585,0-2.87,1.285-2.87,2.87v10.885h42.319v-10.885
		C295.316,356.012,294.031,354.727,292.445,354.727z"/>
	<path style="fill:#E1E6E9;" d="M252.997,245.828v10.885c0,1.585,1.285,2.87,2.87,2.87h36.578c1.585,0,2.87-1.285,2.87-2.87v-10.885
		L252.997,245.828L252.997,245.828z"/>
	<path style="fill:#E1E6E9;" d="M264.489,348.691c-1.13,0-2.044-0.914-2.044-2.044v-77.17c0-1.13,0.914-2.044,2.044-2.044
		s2.044,0.914,2.044,2.044v77.17C266.533,347.777,265.618,348.691,264.489,348.691z"/>
	<path style="fill:#E1E6E9;" d="M274.156,348.691c-1.13,0-2.044-0.914-2.044-2.044v-77.17c0-1.13,0.914-2.044,2.044-2.044
		s2.044,0.914,2.044,2.044v77.17C276.2,347.777,275.286,348.691,274.156,348.691z"/>
	<path style="fill:#E1E6E9;" d="M283.824,348.691c-1.13,0-2.044-0.914-2.044-2.044v-77.17c0-1.13,0.914-2.044,2.044-2.044
		s2.044,0.914,2.044,2.044v77.17C285.868,347.777,284.954,348.691,283.824,348.691z"/>
</g>
<rect x="336.28" y="256.36" style="fill:#EBF0F3;" width="35.29" height="103.42"/>
<g>
	<path style="fill:#E1E6E9;" d="M372.191,354.727h-36.578c-1.585,0-2.87,1.285-2.87,2.87v10.885h42.319v-10.885
		C375.061,356.012,373.776,354.727,372.191,354.727z"/>
	<path style="fill:#E1E6E9;" d="M332.742,245.828v10.885c0,1.585,1.285,2.87,2.87,2.87h36.578c1.585,0,2.87-1.285,2.87-2.87v-10.885
		L332.742,245.828L332.742,245.828z"/>
	<path style="fill:#E1E6E9;" d="M344.234,348.691c-1.13,0-2.044-0.914-2.044-2.044v-77.17c0-1.13,0.914-2.044,2.044-2.044
		s2.044,0.914,2.044,2.044v77.17C346.278,347.777,345.364,348.691,344.234,348.691z"/>
	<path style="fill:#E1E6E9;" d="M353.902,348.691c-1.13,0-2.044-0.914-2.044-2.044v-77.17c0-1.13,0.914-2.044,2.044-2.044
		s2.044,0.914,2.044,2.044v77.17C355.945,347.777,355.031,348.691,353.902,348.691z"/>
	<path style="fill:#E1E6E9;" d="M363.569,348.691c-1.13,0-2.044-0.914-2.044-2.044v-77.17c0-1.13,0.914-2.044,2.044-2.044
		s2.044,0.914,2.044,2.044v77.17C365.613,347.777,364.699,348.691,363.569,348.691z"/>
</g>
<path style="fill:#DC8744;" d="M273.475,210.29v-2.262c-2.832-0.289-5.375-1.415-7.624-3.377l2.262-2.696
	c1.735,1.508,3.521,2.406,5.362,2.696v-6.013c-2.336-0.557-4.046-1.291-5.13-2.201c-1.085-0.909-1.627-2.257-1.627-4.044
	s0.623-3.249,1.874-4.386c1.251-1.136,2.878-1.755,4.883-1.859v-1.55h1.982v1.58c2.272,0.166,4.421,0.941,6.447,2.325l-2.015,2.851
	c-1.365-0.971-2.84-1.57-4.431-1.798v5.826h0.093c2.376,0.559,4.121,1.313,5.236,2.262c1.117,0.951,1.675,2.33,1.675,4.138
	s-0.641,3.281-1.922,4.416c-1.281,1.137-2.974,1.757-5.082,1.86v2.231h-1.983V210.29z M271.289,190.286
	c-0.527,0.464-0.789,1.043-0.789,1.735s0.207,1.24,0.62,1.642c0.411,0.404,1.198,0.791,2.356,1.163v-5.362
	C272.545,189.547,271.816,189.821,271.289,190.286z M277.814,203.875c0.578-0.474,0.868-1.073,0.868-1.797
	c0-0.723-0.227-1.296-0.681-1.72c-0.457-0.424-1.304-0.821-2.542-1.193v5.578C276.449,204.641,277.233,204.351,277.814,203.875z"/>
<g>
</g>
<g>
</g>
<g>
</g>
<g>
</g>
<g>
</g>
<g>
</g>
<g>
</g>
<g>
</g>
<g>
</g>
<g>
</g>
<g>
</g>
<g>
</g>
<g>
</g>
<g>
</g>
<g>
</g>
</svg>
