<?xml version="1.0" encoding="iso-8859-1"?>
<!-- Generator: Adobe Illustrator 19.0.0, SVG Export Plug-In . SVG Version: 6.00 Build 0)  -->
<svg version="1.1" id="Capa_1" xmlns="http://www.w3.org/2000/svg" xmlns:xlink="http://www.w3.org/1999/xlink" x="0px" y="0px"
	 viewBox="0 0 409.6 409.6" style="enable-background:new 0 0 409.6 409.6;" xml:space="preserve">
<circle style="fill:#334D5C;" cx="204.8" cy="204.8" r="204.8"/>
<path style="opacity:0.1;enable-background:new    ;" d="M403.952,252.521l-137.09-137.089c-0.194-0.203-0.389-0.399-0.592-0.592
	l-0.289-0.289l-0.024,0.031c-3.1-2.817-7.182-4.582-11.707-4.582h-75.179l-14.025-14.025c-0.046-0.048-0.091-0.092-0.139-0.139
	l-0.076-0.076l0.005,0.028c-0.756-0.697-1.748-1.149-2.874-1.149c-2.347,0-4.267,1.92-4.267,4.267v19.627l19.627,19.627
	l-5.796-1.303c-7.909,1.949-13.831,9.064-13.831,17.559c0,4.502,1.704,8.565,4.418,11.733l-0.013,0.09l0.501,0.501
	c0.295,0.316,0.595,0.617,0.911,0.911l25.878,25.878l-8.862-1.396H168.36c-7.851,0-15.317-3.072-21.291-8.192
	c-5.546-4.736-11.861-7.467-18.517-7.467c-22.699,0-41.089,31.019-41.089,69.248c0,23.534,6.984,44.286,17.636,56.789l-0.015,0.011
	l0.117,0.117c1.493,1.74,3.064,3.29,4.691,4.691l102.087,102.087C305.457,406.19,382.978,340.358,403.952,252.521z"/>
<path style="fill:#64798A;" d="M204.799,205.99c-2.356,0-4.267-1.91-4.267-4.267v-15.31c0-7.633-6.21-13.844-13.844-13.844H175.84
	c-9.998,0-18.133-8.135-18.133-18.133s8.135-18.133,18.133-18.133h78.427c4.902,0,8.89-3.988,8.89-8.89s-3.987-8.89-8.89-8.89
	h-96.56V98.917c0-2.356,1.91-4.267,4.267-4.267c2.356,0,4.267,1.91,4.267,4.267v11.073h88.027c9.606,0,17.423,7.817,17.423,17.423
	s-7.817,17.423-17.423,17.423h-78.427c-5.294,0-9.6,4.306-9.6,9.6s4.306,9.6,9.6,9.6h10.848c12.34,0,22.377,10.037,22.377,22.377
	v15.31C209.066,204.08,207.155,205.99,204.799,205.99z"/>
<path style="fill:#D5D6DB;" d="M281.067,176.496c-6.679,0-12.983,2.692-18.555,7.463c-5.967,5.109-13.408,8.181-21.264,8.181
	h-72.894c-7.856,0-15.297-3.072-21.264-8.181c-5.573-4.771-11.877-7.463-18.555-7.463c-22.68,0-41.067,30.994-41.067,69.227
	s18.386,69.227,41.067,69.227c6.126,0,11.931-2.279,17.148-6.344c5.426-4.228,12.292-6.172,19.17-6.172h79.897
	c6.879,0,13.745,1.944,19.17,6.172c5.217,4.065,11.021,6.344,17.148,6.344c22.681,0,41.067-30.994,41.067-69.227
	C322.133,207.49,303.747,176.496,281.067,176.496z"/>
<rect x="161.97" y="210.3" style="fill:#27A2DB;" width="85.63" height="73.36"/>
<rect x="161.97" y="278.4" style="fill:#1C75A1;" width="85.63" height="5.278"/>
<path style="fill:#EBF0F3;" d="M277.139,220.16l-19.202,19.202c-3.619,3.619-3.619,9.487,0,13.106c3.619,3.619,9.487,3.619,13.106,0
	l19.202-19.202c3.619-3.619,3.619-9.487,0-13.106C286.626,216.54,280.758,216.54,277.139,220.16z"/>
<ellipse style="fill:#E56353;" cx="264.5" cy="245.91" rx="6.963" ry="6.963"/>
<ellipse style="fill:#44C4A1;" cx="283.7" cy="226.73" rx="6.963" ry="6.963"/>
<path style="fill:#EBF0F3;" d="M294,237.021l-19.202,19.202c-3.619,3.619-3.619,9.486,0,13.106c3.619,3.619,9.487,3.619,13.106,0
	l19.202-19.202c3.619-3.619,3.619-9.487,0-13.106C303.487,233.402,297.619,233.402,294,237.021z"/>
<ellipse style="fill:#F6C358;" cx="281.34" cy="262.8" rx="6.963" ry="6.963"/>
<ellipse style="fill:#27A2DB;" cx="300.56" cy="243.58" rx="6.963" ry="6.963"/>
<path style="fill:#D15241;" d="M150.316,238.321h-15.453v-15.453c0-1.482-1.202-2.684-2.684-2.684h-10.085
	c-1.482,0-2.684,1.202-2.684,2.684v15.453h-15.453c-1.482,0-2.684,1.202-2.684,2.684v10.085c0,1.482,1.202,2.684,2.684,2.684h15.453
	v15.454c0,1.482,1.202,2.684,2.684,2.684h10.085c1.482,0,2.684-1.202,2.684-2.684v-15.454h15.453c1.482,0,2.684-1.202,2.684-2.684
	v-10.085C153,239.523,151.798,238.321,150.316,238.321z"/>
<g>
	<polygon style="fill:#E56353;" points="127.136,224.515 123.11,228.541 131.162,228.541 	"/>
	<polygon style="fill:#E56353;" points="127.136,267.581 131.162,263.555 123.11,263.555 	"/>
	<polygon style="fill:#E56353;" points="148.669,246.048 144.643,242.022 144.643,250.074 	"/>
	<polygon style="fill:#E56353;" points="105.603,246.048 109.629,250.074 109.629,242.022 	"/>
</g>
<g>
</g>
<g>
</g>
<g>
</g>
<g>
</g>
<g>
</g>
<g>
</g>
<g>
</g>
<g>
</g>
<g>
</g>
<g>
</g>
<g>
</g>
<g>
</g>
<g>
</g>
<g>
</g>
<g>
</g>
</svg>
