<?xml version="1.0" encoding="iso-8859-1"?>
<!-- Generator: Adobe Illustrator 19.0.0, SVG Export Plug-In . SVG Version: 6.00 Build 0)  -->
<svg version="1.1" id="Capa_1" xmlns="http://www.w3.org/2000/svg" xmlns:xlink="http://www.w3.org/1999/xlink" x="0px" y="0px"
	 viewBox="0 0 409.6 409.6" style="enable-background:new 0 0 409.6 409.6;" xml:space="preserve">
<circle style="fill:#334D5C;" cx="204.8" cy="204.8" r="204.8"/>
<path style="opacity:0.1;enable-background:new    ;" d="M406.411,240.636L290.612,124.837c-1.884-2.021-3.838-3.975-5.859-5.859
	l-0.098-0.098l-0.002,0.002c-20.946-19.479-49.007-31.409-79.873-31.409c-64.768,0-117.333,52.522-117.333,117.333
	c0,28.535,10.198,54.681,27.132,75.017l-0.002,0.002l0.031,0.031c4.57,5.483,9.629,10.542,15.112,15.112L241.082,406.33
	C325.239,391.277,391.539,324.856,406.411,240.636z"/>
<circle style="fill:#EBF0F3;" cx="204.8" cy="204.8" r="117.33"/>
<circle style="fill:#E56353;" cx="204.8" cy="204.8" r="90.03"/>
<polygon style="fill:#FFFFFF;" points="180.743,144.714 254.068,202.765 180.743,264.886 "/>
<g>
</g>
<g>
</g>
<g>
</g>
<g>
</g>
<g>
</g>
<g>
</g>
<g>
</g>
<g>
</g>
<g>
</g>
<g>
</g>
<g>
</g>
<g>
</g>
<g>
</g>
<g>
</g>
<g>
</g>
</svg>
