<?xml version="1.0" encoding="iso-8859-1"?>
<!-- Generator: Adobe Illustrator 19.0.0, SVG Export Plug-In . SVG Version: 6.00 Build 0)  -->
<svg version="1.1" id="Capa_1" xmlns="http://www.w3.org/2000/svg" xmlns:xlink="http://www.w3.org/1999/xlink" x="0px" y="0px"
	 viewBox="0 0 436.907 436.907" style="enable-background:new 0 0 436.907 436.907;" xml:space="preserve">
<circle style="fill:#334D5C;" cx="218.454" cy="218.45" r="218.45"/>
<path style="opacity:0.1;enable-background:new    ;" d="M218.457,436.907c104.364,0,191.579-73.205,213.237-171.053l-98.558-98.558
	l-115.269-76.46l-114.073,76.459l12.527,12.527v149.743H90.447v16.486l86.946,86.946
	C190.699,435.529,204.414,436.907,218.457,436.907z"/>
<rect x="116.334" y="167.29" style="fill:#DC8744;" width="204.27" height="162.26"/>
<polygon style="fill:#FCD462;" points="333.135,167.29 217.851,90.839 103.78,167.29 "/>
<polygon style="fill:#F6C358;" points="299.763,167.29 217.418,112.682 135.938,167.29 "/>
<rect x="90.454" y="329.56" style="fill:#31978C;" width="256" height="16.514"/>
<rect x="90.454" y="336.96" style="fill:#44C4A1;" width="256" height="9.12"/>
<path style="fill:#3A556A;" d="M252.488,329.554h-68.062v-64.839c0-12.152,9.851-22.003,22.003-22.003h24.055
	c12.152,0,22.003,9.851,22.003,22.003L252.488,329.554L252.488,329.554z"/>
<path style="fill:#64798A;" d="M184.426,329.554v-65.029c0-12.047,9.766-21.814,21.814-21.814h12.217v86.843L184.426,329.554
	L184.426,329.554z"/>
<rect x="159.964" y="177.22" style="fill:#3A556A;" width="117.01" height="44.3"/>
<polygon style="fill:#64798A;" points="159.959,221.525 159.959,177.225 276.954,177.225 "/>
<g>
</g>
<g>
</g>
<g>
</g>
<g>
</g>
<g>
</g>
<g>
</g>
<g>
</g>
<g>
</g>
<g>
</g>
<g>
</g>
<g>
</g>
<g>
</g>
<g>
</g>
<g>
</g>
<g>
</g>
</svg>
