<?xml version="1.0" encoding="iso-8859-1"?>
<!-- Generator: Adobe Illustrator 19.0.0, SVG Export Plug-In . SVG Version: 6.00 Build 0)  -->
<svg version="1.1" id="Capa_1" xmlns="http://www.w3.org/2000/svg" xmlns:xlink="http://www.w3.org/1999/xlink" x="0px" y="0px"
	 viewBox="0 0 491.52 491.52" style="enable-background:new 0 0 491.52 491.52;" xml:space="preserve">
<circle style="fill:#334D5C;" cx="245.76" cy="245.76" r="245.76"/>
<path style="fill:#64798A;" d="M257.62,322.757l-26.618-63.094l-25.182,10.624l26.618,63.094
	C233.248,335.298,258.43,324.674,257.62,322.757z"/>
<polygon style="fill:#FCD462;" points="163.19,147.478 167.988,145.454 172.785,143.43 169.441,118.997 150.904,104.96 
	148.022,128.033 "/>
<g>
	<polygon style="fill:#64798A;" points="213.176,252.11 214.673,251.479 225.603,246.867 197.895,181.188 186.964,185.8 
		185.467,186.431 172.712,191.812 200.421,257.491 	"/>
	<path style="fill:#64798A;" d="M190.846,169.736l-12.844-30.445c-0.795-1.887-22.214,7.15-21.419,9.036l12.844,30.445
		C168.632,176.884,190.051,167.848,190.846,169.736z"/>
</g>
<path style="fill:#F6C358;" d="M191.58,171.474l-12.844-30.445c-0.795-1.887-22.214,7.15-21.419,9.036l12.844,30.445
	C169.366,178.623,190.784,169.587,191.58,171.474z"/>
<path style="fill:#FCD462;" d="M198.652,182.983l-11.849-28.086c-0.935-2.218-26.117,8.406-25.182,10.624l11.849,28.086
	C172.535,191.388,197.717,180.764,198.652,182.983z"/>
<path style="fill:#F6C358;" d="M156.494,125.503c0.608,1.442,2.271,2.119,3.714,1.51c1.441-0.608,2.119-2.272,1.51-3.714
	c-0.464-1.1-1.541-1.743-2.666-1.723l-6.476-15.35l-1.672-1.266l-0.259,2.071l6.479,15.358
	C156.321,123.181,156.029,124.401,156.494,125.503z"/>
<g>
	
		<rect x="200.082" y="251.905" transform="matrix(-0.9213 0.3888 -0.3888 -0.9213 510.4986 406.3742)" style="fill:#FCD462;" width="28.109" height="5.857"/>
	<path style="fill:#FCD462;" d="M205.971,271.645l-1.171-2.775l25.898-10.926l1.171,2.775
		C223.367,264.866,214.736,268.517,205.971,271.645z"/>
</g>
<rect x="203.935" y="257.943" transform="matrix(-0.9214 0.3887 -0.3887 -0.9214 517.6315 416.8582)" style="fill:#F6C358;" width="25.431" height="5.688"/>
<polygon style="fill:#DC8744;" points="202.329,263.012 228.227,252.086 227.255,253.222 203.899,263.076 "/>
<path style="fill:#F6C358;" d="M242.995,332.646l6.732-2.84c0.58-0.245,0.851-0.913,0.607-1.494l-24.181-57.316
	c-0.245-0.58-0.913-0.851-1.493-0.607l-6.733,2.84c-0.58,0.245-0.852,0.913-0.607,1.493l24.181,57.316
	C241.746,332.618,242.416,332.891,242.995,332.646z"/>
<g>
	
		<rect x="234.192" y="282.023" transform="matrix(0.9214 -0.3887 0.3887 0.9214 -100.7296 115.8971)" style="fill:#3A556A;" width="3.835" height="49.818"/>
	<polygon style="fill:#3A556A;" points="224.012,283.183 227.545,281.693 225.297,272.615 219.078,275.239 	"/>
</g>
<path style="fill:#F6C358;" d="M263.539,338.898l-4.127-9.781c0.636,1.506-23.032,11.491-23.668,9.986l4.126,9.781
	C240.506,350.389,264.174,340.404,263.539,338.898z"/>
<path style="fill:#FCD462;" d="M262.111,333.4l-4.39-10.407c0.677,1.602-24.505,12.226-25.182,10.624l4.39,10.407
	C237.605,345.626,262.788,335.002,262.111,333.4z"/>
<path style="fill:#CE412D;" d="M331.002,124.769c0.749,0.142,1.487-0.436,1.649-1.29l0.869-4.584
	c0.162-0.855-0.313-1.662-1.062-1.804c-0.749-0.142-1.487,0.436-1.649,1.29l-0.869,4.584
	C329.777,123.819,330.254,124.627,331.002,124.769z"/>
<path style="fill:#E56353;" d="M314.811,280.494l25.77-135.948c0.176-0.927,0.102-1.884-0.212-2.774l-7.283-20.584l-2.712-0.514
	l-14.311,16.491c-0.619,0.712-1.037,1.576-1.212,2.503l-25.77,135.947L314.811,280.494z"/>
<path style="fill:#3A556A;" d="M278.245,341.296l22.611,4.286c1.578,0.3,3.1-0.737,3.399-2.315l11.852-62.527l-28.324-5.369
	l-11.852,62.528C275.632,339.475,276.668,340.997,278.245,341.296z"/>
<path style="fill:#2F4859;" d="M287.683,335.961l6.345,1.203c0.442,0.083,0.869-0.207,0.953-0.649l9.645-50.879
	c0.083-0.442-0.207-0.868-0.65-0.952l-6.345-1.203c-0.443-0.084-0.869,0.207-0.953,0.649l-9.645,50.878
	C286.949,335.451,287.24,335.877,287.683,335.961z"/>
<g>
	
		<rect x="293.998" y="293.181" transform="matrix(0.9825 0.1863 -0.1863 0.9825 63.4585 -49.5499)" style="fill:#EBF0F3;" width="2.714" height="39.337"/>
	<polygon style="fill:#EBF0F3;" points="298.012,291.524 300.677,292.029 302.522,286.853 298.189,286.031 	"/>
</g>
<rect x="270.622" y="123.985" transform="matrix(0.9011 0.4336 -0.4336 0.9011 111.1374 -100.082)" style="fill:#44C4A1;" width="8.735" height="139.264"/>
<rect x="262.723" y="120.185" transform="matrix(0.9011 0.4336 -0.4336 0.9011 108.7154 -97.0369)" style="fill:#3EA69B;" width="8.735" height="139.264"/>
<rect x="254.844" y="116.412" transform="matrix(0.9011 0.4336 -0.4336 0.9011 106.294 -93.9901)" style="fill:#31978C;" width="8.735" height="139.264"/>
<rect x="223.111" y="252.454" transform="matrix(0.9011 0.4336 -0.4336 0.9011 133.4903 -77.3028)" style="fill:#E56353;" width="26.209" height="3.087"/>
<path style="fill:#EBF0F3;" d="M236.49,277.32l-5.397-2.597l8.403-17.464l7.872,3.788l-7.212,14.988
	C239.499,277.403,237.857,277.978,236.49,277.32z"/>
<rect x="221.654" y="259.751" transform="matrix(-0.4336 0.9011 -0.9011 -0.4336 569.6509 170.1713)" style="fill:#E1E6E9;" width="19.379" height="8.735"/>
<path style="fill:#D5D6DB;" d="M223.22,270.935l-5.397-2.596c-1.368-0.658-1.943-2.3-1.285-3.667l7.212-14.988l7.873,3.788
	L223.22,270.935z"/>
<path style="fill:#FCD462;" d="M285.474,121.4l13.65-9.858c0.579,1.759,1.835,3.292,3.635,4.158c1.8,0.866,3.781,0.89,5.517,0.245
	l0.816,16.818L285.474,121.4z"/>
<path style="fill:#64798A;" d="M302.76,115.701c-1.801-0.866-3.056-2.4-3.635-4.158l6.589-4.758
	c0.881-0.636,2.116-0.042,2.169,1.043l0.394,8.118C306.54,116.591,304.56,116.567,302.76,115.701z"/>
<rect x="223.341" y="107.247" transform="matrix(-0.9275 0.3738 -0.3738 -0.9275 546.6747 297.5299)" style="fill:#EBF0F3;" width="42.296" height="189.046"/>
<rect x="239.834" y="107.242" transform="matrix(-0.9275 0.3737 -0.3737 -0.9275 546.6678 297.5309)" style="fill:#E1E6E9;" width="9.308" height="189.046"/>
<g>
	
		<rect x="225.577" y="113.38" transform="matrix(-0.9275 0.3738 -0.3738 -0.9275 483.4885 134.7659)" style="fill:#D5D6DB;" width="6.2" height="1.766"/>
	
		<rect x="227.071" y="117.14" transform="matrix(-0.9275 0.3738 -0.3738 -0.9275 487.7745 141.4406)" style="fill:#D5D6DB;" width="6.2" height="1.766"/>
	
		<rect x="228.611" y="120.887" transform="matrix(-0.9275 0.3737 -0.3737 -0.9275 492.1422 148.1168)" style="fill:#D5D6DB;" width="6.2" height="1.766"/>
	
		<rect x="226.763" y="125.294" transform="matrix(-0.9275 0.3738 -0.3738 -0.9275 493.5735 156.647)" style="fill:#D5D6DB;" width="9.672" height="1.766"/>
	
		<rect x="231.63" y="128.412" transform="matrix(-0.9275 0.3738 -0.3738 -0.9275 500.7751 161.4844)" style="fill:#D5D6DB;" width="6.2" height="1.766"/>
	
		<rect x="233.156" y="132.143" transform="matrix(-0.9275 0.3738 -0.3738 -0.9275 505.1103 168.1042)" style="fill:#D5D6DB;" width="6.2" height="1.766"/>
	
		<rect x="234.663" y="135.918" transform="matrix(-0.9275 0.3738 -0.3738 -0.9275 509.427 174.8072)" style="fill:#D5D6DB;" width="6.2" height="1.766"/>
	
		<rect x="232.855" y="140.309" transform="matrix(-0.9275 0.3738 -0.3738 -0.9275 510.9266 183.3108)" style="fill:#D5D6DB;" width="9.672" height="1.766"/>
	
		<rect x="237.665" y="143.417" transform="matrix(-0.9275 0.3738 -0.3738 -0.9275 518.015 188.1506)" style="fill:#D5D6DB;" width="6.2" height="1.766"/>
	
		<rect x="239.208" y="147.178" transform="matrix(-0.9275 0.3738 -0.3738 -0.9275 522.3947 194.8228)" style="fill:#D5D6DB;" width="6.2" height="1.766"/>
	
		<rect x="240.74" y="150.927" transform="matrix(-0.9275 0.3738 -0.3738 -0.9275 526.7538 201.4549)" style="fill:#D5D6DB;" width="6.2" height="1.766"/>
	
		<rect x="238.888" y="155.342" transform="matrix(-0.9275 0.3738 -0.3738 -0.9275 528.1775 210.0192)" style="fill:#D5D6DB;" width="9.672" height="1.766"/>
	
		<rect x="243.746" y="158.457" transform="matrix(-0.9275 0.3738 -0.3738 -0.9275 535.358 214.8671)" style="fill:#D5D6DB;" width="6.2" height="1.766"/>
	
		<rect x="245.259" y="162.208" transform="matrix(-0.9275 0.3738 -0.3738 -0.9275 539.6765 221.5349)" style="fill:#D5D6DB;" width="6.2" height="1.766"/>
	
		<rect x="246.786" y="165.962" transform="matrix(-0.9275 0.3738 -0.3738 -0.9275 544.0228 228.1983)" style="fill:#D5D6DB;" width="6.2" height="1.766"/>
	
		<rect x="244.931" y="170.347" transform="matrix(-0.9275 0.3738 -0.3738 -0.9275 545.4315 236.6972)" style="fill:#D5D6DB;" width="9.672" height="1.766"/>
	
		<rect x="249.804" y="173.476" transform="matrix(-0.9275 0.3738 -0.3738 -0.9275 552.6543 241.5296)" style="fill:#D5D6DB;" width="6.2" height="1.766"/>
	
		<rect x="251.357" y="177.221" transform="matrix(-0.9275 0.3738 -0.3738 -0.9275 557.0416 248.1904)" style="fill:#D5D6DB;" width="6.2" height="1.766"/>
	
		<rect x="252.825" y="180.991" transform="matrix(-0.9275 0.3738 -0.3738 -0.9275 561.2802 254.9085)" style="fill:#D5D6DB;" width="6.2" height="1.766"/>
	
		<rect x="250.985" y="185.425" transform="matrix(-0.9275 0.3738 -0.3738 -0.9275 562.7353 263.4973)" style="fill:#D5D6DB;" width="9.672" height="1.766"/>
	
		<rect x="255.857" y="188.495" transform="matrix(-0.9275 0.3738 -0.3738 -0.9275 569.9352 268.2157)" style="fill:#D5D6DB;" width="6.2" height="1.766"/>
	
		<rect x="257.406" y="192.249" transform="matrix(-0.9275 0.3738 -0.3738 -0.9275 574.3188 274.8969)" style="fill:#D5D6DB;" width="6.2" height="1.766"/>
	
		<rect x="258.859" y="196" transform="matrix(-0.9275 0.3738 -0.3738 -0.9275 578.5221 281.5846)" style="fill:#D5D6DB;" width="6.2" height="1.766"/>
	
		<rect x="257.061" y="200.39" transform="matrix(-0.9275 0.3738 -0.3738 -0.9275 580.0417 290.0715)" style="fill:#D5D6DB;" width="9.672" height="1.766"/>
	
		<rect x="261.887" y="203.546" transform="matrix(-0.9275 0.3738 -0.3738 -0.9275 587.1857 294.9735)" style="fill:#D5D6DB;" width="6.2" height="1.766"/>
	
		<rect x="263.411" y="207.282" transform="matrix(-0.9275 0.3738 -0.3738 -0.9275 591.5197 301.6043)" style="fill:#D5D6DB;" width="6.2" height="1.766"/>
	
		<rect x="264.942" y="211.046" transform="matrix(-0.9275 0.3738 -0.3738 -0.9275 595.8692 308.3122)" style="fill:#D5D6DB;" width="6.2" height="1.766"/>
	
		<rect x="263.115" y="215.447" transform="matrix(-0.9275 0.3738 -0.3738 -0.9275 597.3379 316.8322)" style="fill:#D5D6DB;" width="9.672" height="1.766"/>
	
		<rect x="267.982" y="218.546" transform="matrix(-0.9275 0.3738 -0.3738 -0.9275 604.5333 321.6309)" style="fill:#D5D6DB;" width="6.2" height="1.766"/>
	
		<rect x="269.476" y="222.309" transform="matrix(-0.9275 0.3738 -0.3738 -0.9275 608.8262 328.3013)" style="fill:#D5D6DB;" width="6.2" height="1.766"/>
	
		<rect x="270.99" y="226.025" transform="matrix(-0.9275 0.3738 -0.3738 -0.9275 613.1268 334.9225)" style="fill:#D5D6DB;" width="6.2" height="1.766"/>
	
		<rect x="269.149" y="230.457" transform="matrix(-0.9275 0.3738 -0.3738 -0.9275 614.5794 343.5085)" style="fill:#D5D6DB;" width="9.672" height="1.766"/>
	
		<rect x="274.019" y="233.574" transform="matrix(-0.9275 0.3738 -0.3738 -0.9275 621.7872 348.3426)" style="fill:#D5D6DB;" width="6.2" height="1.766"/>
	
		<rect x="275.519" y="237.312" transform="matrix(-0.9275 0.3738 -0.3738 -0.9275 626.0739 354.9897)" style="fill:#D5D6DB;" width="6.2" height="1.766"/>
	
		<rect x="277.051" y="241.102" transform="matrix(-0.9275 0.3738 -0.3738 -0.9275 630.4488 361.7042)" style="fill:#D5D6DB;" width="6.2" height="1.766"/>
	
		<rect x="275.213" y="245.494" transform="matrix(-0.9275 0.3738 -0.3738 -0.9275 631.888 370.226)" style="fill:#D5D6DB;" width="9.672" height="1.766"/>
	
		<rect x="280.078" y="248.617" transform="matrix(-0.9275 0.3738 -0.3738 -0.9275 639.0875 375.074)" style="fill:#D5D6DB;" width="6.2" height="1.766"/>
	
		<rect x="281.59" y="252.362" transform="matrix(-0.9275 0.3738 -0.3738 -0.9275 643.402 381.7276)" style="fill:#D5D6DB;" width="6.2" height="1.766"/>
	
		<rect x="283.083" y="256.111" transform="matrix(-0.9275 0.3737 -0.3737 -0.9275 647.6778 388.4069)" style="fill:#D5D6DB;" width="6.2" height="1.766"/>
	
		<rect x="281.27" y="260.517" transform="matrix(-0.9275 0.3738 -0.3738 -0.9275 649.1767 396.9197)" style="fill:#D5D6DB;" width="9.672" height="1.766"/>
	
		<rect x="286.131" y="263.628" transform="matrix(-0.9275 0.3737 -0.3737 -0.9275 656.3619 401.7563)" style="fill:#D5D6DB;" width="6.2" height="1.766"/>
	
		<rect x="287.639" y="267.368" transform="matrix(-0.9275 0.3738 -0.3738 -0.9275 660.6706 408.3907)" style="fill:#D5D6DB;" width="6.2" height="1.766"/>
	
		<rect x="289.177" y="271.146" transform="matrix(-0.9275 0.3737 -0.3737 -0.9275 665.0416 415.1096)" style="fill:#D5D6DB;" width="6.2" height="1.766"/>
	
		<rect x="287.333" y="275.522" transform="matrix(-0.9275 0.3738 -0.3738 -0.9275 666.4716 423.5768)" style="fill:#D5D6DB;" width="9.672" height="1.766"/>
</g>
<path style="fill:#F6C358;" d="M334.684,197.344H156.837c-10.189,0-18.448,7.646-18.448,17.076c0,9.431,8.259,17.076,18.448,17.076
	h177.846c10.188,0,18.447-7.645,18.447-17.076C353.13,204.99,344.871,197.344,334.684,197.344z"/>
<polygon style="fill:#DC8744;" points="335.148,231.497 156.837,231.497 156.867,231.758 331.805,260.582 "/>
<path style="fill:#FCD462;" d="M156.867,231.758l16.609,144.503c0.673,5.856,6.01,10.298,12.371,10.298h120.291
	c6.361,0,11.698-4.442,12.371-10.298l13.296-115.679L156.867,231.758z"/>
<path style="fill:#F6C358;" d="M191.474,271.765v93.95c0,2.887,2.527,5.227,5.646,5.227V266.538
	C194.001,266.538,191.474,268.878,191.474,271.765z"/>
<path style="fill:#DC8744;" d="M197.119,266.538v104.404c3.118,0,5.646-2.34,5.646-5.227v-93.95
	C202.766,268.878,200.237,266.538,197.119,266.538z"/>
<path style="fill:#F6C358;" d="M222.951,271.765v93.95c0,2.887,2.528,5.227,5.646,5.227V266.538
	C225.479,266.538,222.951,268.878,222.951,271.765z"/>
<path style="fill:#DC8744;" d="M228.597,266.538v104.404c3.118,0,5.646-2.34,5.646-5.227v-93.95
	C234.243,268.878,231.715,266.538,228.597,266.538z"/>
<path style="fill:#F6C358;" d="M254.429,271.765v93.95c0,2.887,2.528,5.227,5.646,5.227V266.538
	C256.956,266.538,254.429,268.878,254.429,271.765z"/>
<path style="fill:#DC8744;" d="M260.075,266.538v104.404c3.118,0,5.646-2.34,5.646-5.227v-93.95
	C265.721,268.878,263.193,266.538,260.075,266.538z"/>
<path style="fill:#F6C358;" d="M285.906,271.765v93.95c0,2.887,2.528,5.227,5.646,5.227V266.538
	C288.434,266.538,285.906,268.878,285.906,271.765z"/>
<path style="fill:#DC8744;" d="M291.553,266.538v104.404c3.118,0,5.646-2.34,5.646-5.227v-93.95
	C297.199,268.878,294.67,266.538,291.553,266.538z"/>
<g>
</g>
<g>
</g>
<g>
</g>
<g>
</g>
<g>
</g>
<g>
</g>
<g>
</g>
<g>
</g>
<g>
</g>
<g>
</g>
<g>
</g>
<g>
</g>
<g>
</g>
<g>
</g>
<g>
</g>
</svg>
