<?xml version="1.0" encoding="iso-8859-1"?>
<!-- Generator: Adobe Illustrator 19.0.0, SVG Export Plug-In . SVG Version: 6.00 Build 0)  -->
<svg version="1.1" id="Capa_1" xmlns="http://www.w3.org/2000/svg" xmlns:xlink="http://www.w3.org/1999/xlink" x="0px" y="0px"
	 viewBox="0 0 491.52 491.52" style="enable-background:new 0 0 491.52 491.52;" xml:space="preserve">
<circle style="fill:#334D5C;" cx="245.76" cy="245.76" r="245.76"/>
<path style="opacity:0.1;enable-background:new    ;" d="M485.42,300.086L294.502,109.169c-0.717-1.383-1.792-2.509-3.174-3.175
	c-1.126-0.665-2.406-1.023-3.789-1.023H112.794c-4.301,0-7.834,3.481-7.834,7.834v95.283c0,2.048,0.819,3.942,2.099,5.324
	l0.205,0.205L128,234.352v15.821c0,1.178,0.41,2.202,1.126,2.918l0.41,0.41l66.56,66.56v20.121c0,2.202,0.922,4.199,2.406,5.632
	L329.54,476.852C407.417,448.611,466.9,382.118,485.42,300.086z"/>
<path style="fill:#FCD462;" d="M287.565,104.96H112.806c-4.334,0-7.846,3.513-7.846,7.846v95.291c0,4.334,3.513,7.847,7.846,7.847
	h15.174v34.23c0,3.844,4.647,5.768,7.366,3.05l37.28-37.281h114.938c4.335,0,7.848-3.514,7.848-7.848v-95.289
	C295.412,108.473,291.899,104.96,287.565,104.96z"/>
<g>
	<rect x="195.277" y="122.189" style="fill:#DC8744;" width="88.402" height="10.122"/>
	<rect x="195.277" y="154.522" style="fill:#DC8744;" width="88.402" height="10.122"/>
	<rect x="195.277" y="186.844" style="fill:#DC8744;" width="88.402" height="10.122"/>
	<circle style="fill:#DC8744;" cx="149.043" cy="142.986" r="15.734"/>
	<path style="fill:#DC8744;" d="M149.045,164.642c-17.855,0-32.329,14.474-32.329,32.329h64.657
		C181.374,179.116,166.9,164.642,149.045,164.642z"/>
</g>
<path style="fill:#44C4A1;" d="M203.955,237.023h174.758c4.334,0,7.846,3.513,7.846,7.846v95.291c0,4.334-3.513,7.847-7.846,7.847
	H363.54v34.23c0,3.844-4.647,5.768-7.366,3.051l-37.28-37.281H203.956c-4.335,0-7.848-3.514-7.848-7.848V244.87
	C196.108,240.536,199.621,237.023,203.955,237.023z"/>
<g>
	<rect x="207.862" y="254.254" style="fill:#31978C;" width="88.402" height="10.122"/>
	<rect x="207.862" y="286.582" style="fill:#31978C;" width="88.402" height="10.122"/>
	<rect x="207.862" y="318.925" style="fill:#31978C;" width="88.402" height="10.122"/>
	<circle style="fill:#31978C;" cx="342.477" cy="275.052" r="15.734"/>
	<path style="fill:#31978C;" d="M342.475,296.704c17.855,0,32.329,14.474,32.329,32.329h-64.657
		C310.146,311.179,324.62,296.704,342.475,296.704z"/>
</g>
<g>
</g>
<g>
</g>
<g>
</g>
<g>
</g>
<g>
</g>
<g>
</g>
<g>
</g>
<g>
</g>
<g>
</g>
<g>
</g>
<g>
</g>
<g>
</g>
<g>
</g>
<g>
</g>
<g>
</g>
</svg>
