<?xml version="1.0" encoding="iso-8859-1"?>
<!-- Generator: Adobe Illustrator 19.0.0, SVG Export Plug-In . SVG Version: 6.00 Build 0)  -->
<svg version="1.1" id="Capa_1" xmlns="http://www.w3.org/2000/svg" xmlns:xlink="http://www.w3.org/1999/xlink" x="0px" y="0px"
	 viewBox="0 0 436.907 436.907" style="enable-background:new 0 0 436.907 436.907;" xml:space="preserve">
<circle style="fill:#334D5C;" cx="218.453" cy="218.453" r="218.453"/>
<path style="opacity:0.1;enable-background:new    ;" d="M424.632,290.664l-94.596-94.596
	c-27.306-30.827-67.163-50.275-111.583-50.275c-51.384,0-96.656,26.027-123.458,65.588c-1.585,2.313-3.104,4.668-4.542,7.072
	c1.528,2.554,3.144,5.047,4.817,7.499c0.545,0.799,1.127,1.568,1.688,2.356c1.162,1.635,2.338,3.258,3.563,4.843
	c0.696,0.9,1.419,1.776,2.136,2.66c1.16,1.432,2.337,2.848,3.549,4.235c0.778,0.891,1.568,1.767,2.367,2.639
	c1.23,1.343,2.486,2.659,3.764,3.956c0.818,0.83,1.635,1.66,2.472,2.47c0.296,0.287,0.576,0.59,0.875,0.875l-0.008,0.002
	l174.732,174.732C353.069,402.861,402.698,353.29,424.632,290.664z"/>
<g>
	<path style="fill:#DC8744;" d="M90.453,218.453c26.033-43.515,73.605-72.66,128-72.66s101.967,29.146,128,72.66"/>
	<path style="fill:#DC8744;" d="M346.453,218.453c-26.033,43.515-73.605,72.66-128,72.66s-101.967-29.146-128-72.66"/>
	<path style="fill:#DC8744;" d="M218.453,291.114c54.395,0,101.967-29.146,128-72.66c-26.033-43.515-73.605-72.66-128-72.66
		s-101.967,29.146-128,72.66C116.486,261.968,164.059,291.114,218.453,291.114z"/>
</g>
<g>
	<path style="fill:#FCD462;" d="M301.699,265.709c18.162-12.256,33.479-28.408,44.754-47.256
		c-11.148-18.634-26.862-34.633-44.754-46.837V265.709z"/>
	<path style="fill:#FCD462;" d="M135.208,265.709c-18.162-12.256-33.479-28.408-44.754-47.256
		c11.148-18.634,26.862-34.633,44.754-46.837V265.709z"/>
	<path style="fill:#FCD462;" d="M283.613,222.205h-130.32c-2.073,0-3.75-1.677-3.75-3.75s1.677-3.75,3.75-3.75h130.32
		c2.073,0,3.75,1.677,3.75,3.75S285.686,222.205,283.613,222.205z"/>
	<path style="fill:#FCD462;" d="M271.486,231.332h-0.59c-1.649,0-2.987-1.337-2.987-2.987v-18.872c0-1.65,1.337-2.987,2.987-2.987
		h0.59c1.65,0,2.987,1.337,2.987,2.987v18.872C274.472,229.995,273.135,231.332,271.486,231.332z"/>
	<path style="fill:#FCD462;" d="M259.766,231.332h-0.59c-1.649,0-2.987-1.337-2.987-2.987v-18.872c0-1.65,1.337-2.987,2.987-2.987
		h0.59c1.65,0,2.987,1.337,2.987,2.987v18.872C262.753,229.995,261.416,231.332,259.766,231.332z"/>
	<path style="fill:#FCD462;" d="M248.047,231.332h-0.59c-1.649,0-2.987-1.337-2.987-2.987v-18.872c0-1.65,1.337-2.987,2.987-2.987
		h0.59c1.649,0,2.987,1.337,2.987,2.987v18.872C251.033,229.995,249.696,231.332,248.047,231.332z"/>
	<path style="fill:#FCD462;" d="M236.327,231.332h-0.59c-1.65,0-2.987-1.337-2.987-2.987v-18.872c0-1.65,1.337-2.987,2.987-2.987
		h0.59c1.649,0,2.987,1.337,2.987,2.987v18.872C239.314,229.995,237.977,231.332,236.327,231.332z"/>
	<path style="fill:#FCD462;" d="M224.608,231.332h-0.59c-1.65,0-2.987-1.337-2.987-2.987v-18.872c0-1.65,1.337-2.987,2.987-2.987
		h0.59c1.65,0,2.987,1.337,2.987,2.987v18.872C227.594,229.995,226.257,231.332,224.608,231.332z"/>
	<path style="fill:#FCD462;" d="M212.888,231.332h-0.59c-1.649,0-2.987-1.337-2.987-2.987v-18.872c0-1.65,1.337-2.987,2.987-2.987
		h0.59c1.65,0,2.987,1.337,2.987,2.987v18.872C215.875,229.995,214.538,231.332,212.888,231.332z"/>
	<path style="fill:#FCD462;" d="M201.169,231.332h-0.59c-1.649,0-2.987-1.337-2.987-2.987v-18.872c0-1.65,1.337-2.987,2.987-2.987
		h0.59c1.65,0,2.987,1.337,2.987,2.987v18.872C204.156,229.995,202.818,231.332,201.169,231.332z"/>
	<path style="fill:#FCD462;" d="M189.45,231.332h-0.59c-1.649,0-2.987-1.337-2.987-2.987v-18.872c0-1.65,1.337-2.987,2.987-2.987
		h0.59c1.649,0,2.987,1.337,2.987,2.987v18.872C192.436,229.995,191.099,231.332,189.45,231.332z"/>
	<path style="fill:#FCD462;" d="M177.73,231.332h-0.59c-1.649,0-2.987-1.337-2.987-2.987v-18.872c0-1.65,1.337-2.987,2.987-2.987
		h0.59c1.649,0,2.987,1.337,2.987,2.987v18.872C180.717,229.995,179.38,231.332,177.73,231.332z"/>
	<path style="fill:#FCD462;" d="M166.011,231.332h-0.59c-1.649,0-2.987-1.337-2.987-2.987v-18.872c0-1.65,1.337-2.987,2.987-2.987
		h0.59c1.649,0,2.987,1.337,2.987,2.987v18.872C168.997,229.995,167.66,231.332,166.011,231.332z"/>
</g>
<g>
</g>
<g>
</g>
<g>
</g>
<g>
</g>
<g>
</g>
<g>
</g>
<g>
</g>
<g>
</g>
<g>
</g>
<g>
</g>
<g>
</g>
<g>
</g>
<g>
</g>
<g>
</g>
<g>
</g>
</svg>
