<?xml version="1.0" encoding="iso-8859-1"?>
<!-- Generator: Adobe Illustrator 19.0.0, SVG Export Plug-In . SVG Version: 6.00 Build 0)  -->
<svg version="1.1" id="Capa_1" xmlns="http://www.w3.org/2000/svg" xmlns:xlink="http://www.w3.org/1999/xlink" x="0px" y="0px"
	 viewBox="0 0 436.907 436.907" style="enable-background:new 0 0 436.907 436.907;" xml:space="preserve">
<circle style="fill:#334D5C;" cx="218.453" cy="218.453" r="218.453"/>
<path style="opacity:0.1;enable-background:new    ;" d="M341.679,238.933h-29.432l-4.9-4.9c-0.504-0.733-1.09-1.333-1.757-1.757h0
	c-0.703-0.447-1.482-0.715-2.345-0.715c-1.241,0-2.32,0.531-3.222,1.407l-18.22-18.22c-0.353-0.945-1.086-1.675-2.025-2.025
	l-58.73-58.73c-0.028-0.03-0.056-0.057-0.085-0.085l-0.042-0.042l0,0.014c-0.629-0.587-1.463-0.962-2.395-0.962
	c-1.911,0-3.482,1.57-3.482,3.482v49.015c-6.724,0.785-12.629,3.277-17.545,7.066h-40.414c-1.911,0-3.482,1.536-3.482,3.482
	c0,0.975,0.396,1.855,1.03,2.492h-0.001l20.48,20.48h-32.872l-3.71-3.71c-0.986-1.181-2.226-1.922-3.7-1.922
	c-2.662,0-4.642,2.424-5.564,5.632H95.236c-2.628,0-4.779,2.15-4.779,4.778v10.07c0,1.648,0.826,3.084,2.078,3.941l16.734,16.734
	c0.01,0.79,0.146,1.562,0.575,2.263c0.817,1.334,2.223,2.012,3.882,2.195l152.654,152.654
	c66.406-14.872,121.381-59.938,149.737-120.073L345.5,240.878C344.627,239.706,343.244,238.933,341.679,238.933z"/>
<path style="fill:#3EA69B;" d="M341.672,258.575H243.94v-19.632h97.732c2.641,0,4.781,2.141,4.781,4.781v10.069
	C346.453,256.435,344.313,258.575,341.672,258.575z"/>
<g>
	<path style="fill:#FCD462;" d="M278.557,219.473H157.094c-1.937,0-3.504-1.567-3.504-3.504c0-1.937,1.567-3.504,3.504-3.504
		h121.463c1.937,0,3.504,1.567,3.504,3.504C282.061,217.906,280.494,219.473,278.557,219.473z"/>
	<path style="fill:#FCD462;" d="M218.538,219.473c-1.937,0-3.504-1.567-3.504-3.504v-59.558c0-1.937,1.567-3.504,3.504-3.504
		c1.937,0,3.504,1.567,3.504,3.504v59.558C222.041,217.906,220.474,219.473,218.538,219.473z"/>
</g>
<path style="fill:#3EA69B;" d="M188.043,258.575H95.235c-2.641,0-4.781-2.141-4.781-4.781v-10.069c0-2.641,2.141-4.781,4.781-4.781
	h92.809V258.575z"/>
<path style="fill:#44C4A1;" d="M252.992,244.581c0,21.77-11.808,39.418-33.578,39.418c-21.77,0-36.79-17.648-36.79-39.418
	s15.02-39.418,36.79-39.418C241.183,205.163,252.992,222.811,252.992,244.581z"/>
<polygon style="fill:#D5D6DB;" points="193.135,229.69 243.94,229.69 235.473,218.011 200.435,218.011 "/>
<polygon style="fill:#E1E6E9;" points="193.135,229.69 200.435,218.011 235.473,218.011 "/>
<rect x="217.805" y="215.962" style="fill:#44C4A1;" width="2.208" height="15.329"/>
<g>
	<path style="fill:#F6C358;" d="M221.357,260.668c-0.821,0-1.646-0.287-2.313-0.869c-1.454-1.28-1.598-3.49-0.318-4.948l5.109-5.817
		c1.273-1.458,3.487-1.588,4.944-0.322c1.454,1.28,1.598,3.49,0.318,4.948l-5.109,5.817
		C223.297,260.265,222.329,260.668,221.357,260.668z"/>
	<path style="fill:#F6C358;" d="M218.199,260.668c-0.972,0-1.94-0.404-2.631-1.191l-5.109-5.817
		c-1.28-1.458-1.136-3.668,0.318-4.948c1.458-1.266,3.671-1.136,4.944,0.322l5.109,5.817c1.28,1.458,1.136,3.668-0.318,4.948
		C219.845,260.381,219.02,260.668,218.199,260.668z"/>
	<path style="fill:#F6C358;" d="M213.566,269.305c-0.821,0-1.646-0.287-2.313-0.869c-1.454-1.28-1.598-3.49-0.318-4.948l5.109-5.817
		c1.273-1.458,3.483-1.588,4.944-0.322c1.454,1.28,1.598,3.49,0.318,4.948l-5.109,5.817
		C215.506,268.901,214.537,269.305,213.566,269.305z"/>
	<path style="fill:#F6C358;" d="M226.941,269.305c-0.972,0-1.94-0.404-2.631-1.191l-5.109-5.817
		c-1.28-1.458-1.136-3.668,0.318-4.948c1.458-1.266,3.668-1.136,4.944,0.322l5.109,5.817c1.28,1.458,1.136,3.668-0.318,4.948
		C228.587,269.017,227.762,269.305,226.941,269.305z"/>
</g>
<path style="fill:#FCD462;" d="M138.648,259.041h-7.62l-2.16-13.154c-0.989-6.023,1.53-12.597,5.97-12.597h0
	c4.44,0,6.96,6.574,5.97,12.597L138.648,259.041z"/>
<path style="fill:#F6C358;" d="M134.837,233.29L134.837,233.29c-4.44,0-6.96,6.574-5.97,12.597l2.16,13.154h3.81L134.837,233.29"/>
<path style="fill:#FCD462;" d="M129.831,260.042l3.974,6.502l-10.097,8.702c-4.623,3.985-11.547,5.263-13.862,1.475l0,0
	c-2.315-3.788,1.98-9.367,7.635-11.663L129.831,260.042z"/>
<path style="fill:#F6C358;" d="M109.846,276.721L109.846,276.721c2.315,3.788,9.239,2.51,13.862-1.475l10.097-8.702l-1.987-3.251
	L109.846,276.721"/>
<path style="fill:#FCD462;" d="M135.44,265.682l4.445-6.19l11.945,5.917c5.469,2.709,9.34,8.59,6.75,12.197h0
	c-2.59,3.607-9.399,1.819-13.715-2.497L135.44,265.682z"/>
<path style="fill:#F6C358;" d="M158.579,277.606L158.579,277.606c2.59-3.607-1.281-9.488-6.75-12.197l-11.945-5.917l-2.222,3.095
	L158.579,277.606"/>
<circle style="fill:#DC8744;" cx="134.827" cy="262.417" r="5.693"/>
<circle style="fill:#D5D6DB;" cx="134.827" cy="262.417" r="3.601"/>
<circle style="fill:#DC8744;" cx="134.827" cy="262.417" r="1.778"/>
<path style="fill:#FCD462;" d="M307.049,257.298h-7.621l-2.16-13.154c-0.989-6.023,1.531-12.597,5.97-12.597h0
	c4.44,0,6.96,6.574,5.97,12.597L307.049,257.298z"/>
<path style="fill:#F6C358;" d="M303.238,231.548L303.238,231.548c-4.44,0-6.96,6.574-5.97,12.597l2.16,13.154h3.81V231.548"/>
<path style="fill:#FCD462;" d="M298.232,258.299l3.974,6.502l-10.097,8.703c-4.623,3.985-11.547,5.263-13.862,1.475l0,0
	c-2.315-3.788,1.98-9.367,7.635-11.663L298.232,258.299z"/>
<path style="fill:#F6C358;" d="M278.247,274.979L278.247,274.979c2.315,3.788,9.239,2.51,13.862-1.475l10.097-8.703l-1.987-3.251
	L278.247,274.979"/>
<path style="fill:#FCD462;" d="M303.841,263.94l4.445-6.19l11.945,5.917c5.469,2.709,9.34,8.59,6.75,12.197h0
	c-2.59,3.607-9.399,1.819-13.715-2.497L303.841,263.94z"/>
<path style="fill:#F6C358;" d="M326.98,275.863L326.98,275.863c2.59-3.607-1.281-9.488-6.75-12.197l-11.945-5.917l-2.222,3.095
	L326.98,275.863"/>
<circle style="fill:#DC8744;" cx="303.241" cy="260.676" r="5.693"/>
<circle style="fill:#D5D6DB;" cx="303.241" cy="260.676" r="3.601"/>
<circle style="fill:#DC8744;" cx="303.241" cy="260.676" r="1.778"/>
<g>
</g>
<g>
</g>
<g>
</g>
<g>
</g>
<g>
</g>
<g>
</g>
<g>
</g>
<g>
</g>
<g>
</g>
<g>
</g>
<g>
</g>
<g>
</g>
<g>
</g>
<g>
</g>
<g>
</g>
</svg>
