<?xml version="1.0" encoding="iso-8859-1"?>
<!-- Generator: Adobe Illustrator 19.0.0, SVG Export Plug-In . SVG Version: 6.00 Build 0)  -->
<svg version="1.1" id="Capa_1" xmlns="http://www.w3.org/2000/svg" xmlns:xlink="http://www.w3.org/1999/xlink" x="0px" y="0px"
	 viewBox="0 0 384 384" style="enable-background:new 0 0 384 384;" xml:space="preserve">
<circle style="fill:#334D5C;" cx="192" cy="192" r="192"/>
<path style="opacity:0.1;enable-background:new    ;" d="M384,192c0-10.356-0.845-20.512-2.424-30.424L302,82H82v86.4l11.52,11.52
	H86.4c-2.44,0-4.4,1.96-4.4,4.4v53c0,1.088,0.442,2.056,1.109,2.821l-0.032,0.008l0.118,0.118c0.072,0.077,0.142,0.148,0.22,0.219
	l14.033,14.034H82v8l11.72,11.72H82v8L93.76,294H82v8l79.576,79.576C171.488,383.155,181.644,384,192,384
	C298.039,384,384,298.039,384,192z"/>
<g>
	<rect x="90" y="187.916" style="fill:#EBF0F3;" width="45.776" height="45.78"/>
	<rect x="169.12" y="187.916" style="fill:#EBF0F3;" width="45.78" height="45.78"/>
	<rect x="248.24" y="187.916" style="fill:#EBF0F3;" width="45.776" height="45.78"/>
</g>
<g>
	<path style="fill:#D5D6DB;" d="M218.506,179.916h-53.011c-2.421,0-4.384,1.963-4.384,4.384v53.011c0,2.421,1.962,4.383,4.384,4.383
		h53.011c2.421,0,4.384-1.962,4.384-4.383V184.3C222.89,181.879,220.927,179.916,218.506,179.916z M186.344,210.806l-17.235,17.235
		V193.57L186.344,210.806z M174.766,187.916h34.469L192,205.15L174.766,187.916z M192,216.461l17.234,17.234h-34.469L192,216.461z
		 M197.655,210.806l17.235-17.236v34.471L197.655,210.806z"/>
	<path style="fill:#D5D6DB;" d="M139.395,179.916H86.384c-2.421,0-4.384,1.963-4.384,4.384v53.011c0,2.421,1.963,4.383,4.384,4.383
		h53.011c2.421,0,4.383-1.962,4.383-4.383V184.3C143.778,181.879,141.816,179.916,139.395,179.916z M107.233,210.806L90,228.039
		v-34.467L107.233,210.806z M95.654,187.916h34.469l-17.234,17.234L95.654,187.916z M112.888,216.461l17.234,17.234H95.654
		L112.888,216.461z M118.544,210.806l17.234-17.234v34.467L118.544,210.806z"/>
	<path style="fill:#D5D6DB;" d="M297.616,179.916h-53.011c-2.421,0-4.383,1.963-4.383,4.384v53.011c0,2.421,1.962,4.383,4.383,4.383
		h53.011c2.421,0,4.384-1.962,4.384-4.383V184.3C302,181.879,300.038,179.916,297.616,179.916z M265.456,210.806l-17.234,17.233
		v-34.467L265.456,210.806z M253.877,187.916h34.469l-17.234,17.234L253.877,187.916z M271.111,216.461l17.234,17.234h-34.469
		L271.111,216.461z M276.766,210.806L294,193.572v34.467L276.766,210.806z"/>
</g>
<rect x="82" y="82" style="fill:#27A2DB;" width="220" height="86.388"/>
<g>
	<rect x="82" y="254.52" style="fill:#EBF0F3;" width="61.776" height="8"/>
	<rect x="82" y="274.24" style="fill:#EBF0F3;" width="61.776" height="8"/>
	<rect x="82" y="294" style="fill:#EBF0F3;" width="45.712" height="8"/>
	<rect x="161.12" y="254.52" style="fill:#EBF0F3;" width="61.776" height="8"/>
	<rect x="161.12" y="274.24" style="fill:#EBF0F3;" width="61.776" height="8"/>
	<rect x="161.12" y="294" style="fill:#EBF0F3;" width="45.712" height="8"/>
	<rect x="240.24" y="254.52" style="fill:#EBF0F3;" width="61.776" height="8"/>
	<rect x="240.24" y="274.24" style="fill:#EBF0F3;" width="61.776" height="8"/>
	<rect x="240.24" y="294" style="fill:#EBF0F3;" width="45.712" height="8"/>
</g>
<circle style="fill:#FCD462;" cx="181.8" cy="157.8" r="2.436"/>
<g>
	<circle style="fill:#FFFFFF;" cx="192" cy="157.8" r="2.436"/>
	<circle style="fill:#FFFFFF;" cx="202.2" cy="157.8" r="2.436"/>
</g>
<g>
</g>
<g>
</g>
<g>
</g>
<g>
</g>
<g>
</g>
<g>
</g>
<g>
</g>
<g>
</g>
<g>
</g>
<g>
</g>
<g>
</g>
<g>
</g>
<g>
</g>
<g>
</g>
<g>
</g>
</svg>
