<?xml version="1.0" encoding="iso-8859-1"?>
<!-- Generator: Adobe Illustrator 19.0.0, SVG Export Plug-In . SVG Version: 6.00 Build 0)  -->
<svg version="1.1" id="Layer_1" xmlns="http://www.w3.org/2000/svg" xmlns:xlink="http://www.w3.org/1999/xlink" x="0px" y="0px"
	 viewBox="0 0 512 512" style="enable-background:new 0 0 512 512;" xml:space="preserve">
<circle style="fill:#334D5C;" cx="256" cy="256" r="256"/>
<path style="opacity:0.1;enable-background:new    ;" d="M506.875,307.173L362.747,163.045l-53.707-53.707H149.2v293.333
	l109.264,109.264C381.221,510.773,483.323,423.253,506.875,307.173z"/>
<polygon style="fill:#FFFFFF;" points="309.035,109.333 149.227,109.333 149.227,402.667 362.773,402.667 362.773,163.067 "/>
<g>
	<polygon style="fill:#EBF0F3;" points="309.035,163.067 362.773,163.067 309.035,109.333 	"/>
	<rect x="166.88" y="187.147" style="fill:#EBF0F3;" width="178.213" height="5.333"/>
	<rect x="166.88" y="216.325" style="fill:#EBF0F3;" width="178.213" height="5.333"/>
	<rect x="166.88" y="245.493" style="fill:#EBF0F3;" width="178.213" height="5.333"/>
	<rect x="166.88" y="274.667" style="fill:#EBF0F3;" width="108.757" height="5.333"/>
	<rect x="166.88" y="303.824" style="fill:#EBF0F3;" width="178.213" height="5.333"/>
	<rect x="166.88" y="333.013" style="fill:#EBF0F3;" width="178.213" height="5.333"/>
	<rect x="166.88" y="362.16" style="fill:#EBF0F3;" width="78.491" height="5.333"/>
</g>
<g>
</g>
<g>
</g>
<g>
</g>
<g>
</g>
<g>
</g>
<g>
</g>
<g>
</g>
<g>
</g>
<g>
</g>
<g>
</g>
<g>
</g>
<g>
</g>
<g>
</g>
<g>
</g>
<g>
</g>
</svg>
