<?xml version="1.0" encoding="iso-8859-1"?>
<!-- Generator: Adobe Illustrator 19.0.0, SVG Export Plug-In . SVG Version: 6.00 Build 0)  -->
<svg version="1.1" id="Capa_1" xmlns="http://www.w3.org/2000/svg" xmlns:xlink="http://www.w3.org/1999/xlink" x="0px" y="0px"
	 viewBox="0 0 511.844 511.844" style="enable-background:new 0 0 511.844 511.844;" xml:space="preserve">
<g>
	<g>
		<path d="M507.845,335.835H3.999c-2.21,0-3.999,1.788-3.999,3.999c0,2.21,1.789,3.998,3.999,3.998h503.846
			c2.209,0,3.998-1.788,3.998-3.998C511.843,337.623,510.054,335.835,507.845,335.835z"/>
	</g>
</g>
<g>
	<g>
		<path d="M255.921,351.815c-8.818,0-15.995,7.17-15.995,15.995c0,8.825,7.177,15.995,15.995,15.995s15.996-7.17,15.996-15.995
			C271.917,358.985,264.739,351.815,255.921,351.815z M255.921,375.807c-4.405,0-7.998-3.592-7.998-7.997
			c0-4.405,3.593-7.997,7.998-7.997c4.412,0,7.998,3.592,7.998,7.997C263.919,372.215,260.333,375.807,255.921,375.807z"/>
	</g>
</g>
<g>
	<g>
		<path d="M204.851,407.906c-2.125-0.438-4.288,0.891-4.772,3.039l-15.995,71.978c-0.477,2.155,0.883,4.288,3.038,4.771
			c0.297,0.063,0.586,0.094,0.875,0.094c1.827,0,3.483-1.264,3.898-3.132l15.995-71.978
			C208.366,410.523,207.007,408.39,204.851,407.906z"/>
	</g>
</g>
<g>
	<g>
		<path d="M327.759,482.923l-15.996-71.978c-0.476-2.148-2.591-3.516-4.771-3.039c-2.156,0.484-3.514,2.617-3.037,4.772
			l15.994,71.978c0.414,1.867,2.07,3.132,3.904,3.132c0.281,0,0.578-0.031,0.867-0.094
			C326.876,487.211,328.236,485.078,327.759,482.923z"/>
	</g>
</g>
<g>
	<g>
		<path d="M335.898,479.791H175.946c-2.211,0-3.999,1.788-3.999,3.998c0,2.211,1.788,3.999,3.999,3.999h159.952
			c2.209,0,3.998-1.788,3.998-3.999C339.896,481.579,338.107,479.791,335.898,479.791z"/>
	</g>
</g>
<g>
	<g>
		<path d="M483.851,48.048H27.991c-2.21,0-3.999,1.789-3.999,3.999v263.919c0,2.21,1.789,3.999,3.999,3.999h455.86
			c2.211,0,4-1.789,4-3.999V52.047C487.851,49.837,486.062,48.048,483.851,48.048z M479.853,311.967H31.99V56.046h447.863V311.967z"
			/>
	</g>
</g>
<g>
	<g>
		<path d="M483.851,24.056H27.991C12.559,24.056,0,36.614,0,52.047V371.95c0,15.432,12.558,27.991,27.991,27.991h455.86
			c15.433,0,27.992-12.559,27.992-27.992V52.047C511.843,36.615,499.285,24.056,483.851,24.056z M503.845,371.949
			c0,11.027-8.965,19.993-19.994,19.993H27.991c-11.02,0-19.994-8.966-19.994-19.993V52.047c0-11.024,8.974-19.994,19.994-19.994
			h455.86c11.029,0,19.994,8.97,19.994,19.994V371.949z"/>
	</g>
</g>
<g>
	<g>
		<path d="M507.846,367.951c-2.211,0-4,1.788-4,3.999v15.87c0,11.215-8.777,19.993-19.994,19.993H27.992
			c-11.207,0-19.994-8.778-19.994-19.993v-15.995c0-2.211-1.789-3.999-3.999-3.999S0,369.614,0,371.825v15.995
			c0,15.698,12.301,27.991,27.991,27.991h455.86c15.699,0,27.992-12.293,27.993-27.991v-15.87
			C511.844,369.739,510.055,367.951,507.846,367.951z"/>
	</g>
</g>
<g>
	<g>
		<path d="M43.986,48.048c-2.21,0-3.999,1.789-3.999,3.999v263.919c0,2.21,1.789,3.999,3.999,3.999s3.999-1.789,3.999-3.999V52.047
			C47.985,49.837,46.196,48.048,43.986,48.048z"/>
	</g>
</g>
<g>
	<g>
		<path d="M35.989,72.04h-7.998c-2.21,0-3.999,1.788-3.999,3.999s1.789,3.999,3.999,3.999h7.998c2.21,0,3.999-1.788,3.999-3.999
			S38.199,72.04,35.989,72.04z"/>
	</g>
</g>
<g>
	<g>
		<path d="M35.989,96.033h-7.998c-2.21,0-3.999,1.789-3.999,3.999c0,2.21,1.789,3.999,3.999,3.999h7.998
			c2.21,0,3.999-1.789,3.999-3.999C39.988,97.822,38.199,96.033,35.989,96.033z"/>
	</g>
</g>
<g>
	<g>
		<path d="M35.989,120.026h-7.998c-2.21,0-3.999,1.788-3.999,3.999s1.789,3.999,3.999,3.999h7.998c2.21,0,3.999-1.788,3.999-3.999
			S38.199,120.026,35.989,120.026z"/>
	</g>
</g>
<g>
	<g>
		<path d="M35.989,144.019h-7.998c-2.21,0-3.999,1.789-3.999,3.999c0,2.21,1.789,3.999,3.999,3.999h7.998
			c2.21,0,3.999-1.789,3.999-3.999C39.988,145.808,38.199,144.019,35.989,144.019z"/>
	</g>
</g>
<g>
	<g>
		<path d="M35.989,168.011h-7.998c-2.21,0-3.999,1.788-3.999,3.999s1.789,3.999,3.999,3.999h7.998c2.21,0,3.999-1.788,3.999-3.999
			S38.199,168.011,35.989,168.011z"/>
	</g>
</g>
<g>
	<g>
		<path d="M35.989,192.004h-7.998c-2.21,0-3.999,1.789-3.999,3.999s1.789,3.999,3.999,3.999h7.998c2.21,0,3.998-1.789,3.999-3.999
			C39.988,193.793,38.199,192.004,35.989,192.004z"/>
	</g>
</g>
<g>
	<g>
		<path d="M35.989,215.996h-7.998c-2.21,0-3.999,1.789-3.999,3.999c0,2.211,1.789,3.999,3.999,3.999h7.998
			c2.21,0,3.998-1.788,3.999-3.999C39.988,217.785,38.199,215.996,35.989,215.996z"/>
	</g>
</g>
<g>
	<g>
		<path d="M35.989,239.989h-7.998c-2.21,0-3.999,1.789-3.999,3.999c0,2.21,1.789,3.999,3.999,3.999h7.998
			c2.21,0,3.998-1.789,3.999-3.999C39.988,241.778,38.199,239.989,35.989,239.989z"/>
	</g>
</g>
<g>
	<g>
		<path d="M35.989,263.983h-7.998c-2.21,0-3.999,1.788-3.999,3.998c0,2.211,1.789,3.999,3.999,3.999h7.998
			c2.21,0,3.998-1.788,3.999-3.999C39.988,265.771,38.199,263.983,35.989,263.983z"/>
	</g>
</g>
<g>
	<g>
		<path d="M35.989,287.975h-7.998c-2.21,0-3.999,1.789-3.999,3.999c0,2.21,1.789,3.999,3.999,3.999h7.998
			c2.21,0,3.999-1.789,3.999-3.999C39.988,289.764,38.199,287.975,35.989,287.975z"/>
	</g>
</g>
<g>
	<g>
		<path d="M99.969,72.04h-31.99c-2.211,0-3.999,1.788-3.999,3.999s1.789,3.999,3.999,3.999h31.99c2.21,0,3.999-1.788,3.999-3.999
			S102.179,72.04,99.969,72.04z"/>
	</g>
</g>
<g>
	<g>
		<path d="M243.924,96.033H131.959c-2.211,0-3.999,1.789-3.999,3.999c0,2.21,1.789,3.999,3.999,3.999h111.965
			c2.211,0,3.999-1.789,3.999-3.999C247.923,97.822,246.135,96.033,243.924,96.033z"/>
	</g>
</g>
<g>
	<g>
		<path d="M115.964,96.033H75.976c-2.21,0-3.999,1.789-3.999,3.999c0,2.21,1.789,3.999,3.999,3.999h39.988
			c2.21,0,3.999-1.789,3.999-3.999C119.963,97.822,118.174,96.033,115.964,96.033z"/>
	</g>
</g>
<g>
	<g>
		<path d="M339.895,120.026H235.927c-2.21,0-3.999,1.788-3.999,3.999s1.789,3.999,3.999,3.999h103.969
			c2.211,0,3.997-1.788,3.997-3.999S342.106,120.026,339.895,120.026z"/>
	</g>
</g>
<g>
	<g>
		<path d="M387.88,120.026h-31.99c-2.209,0-3.998,1.788-3.998,3.999s1.789,3.999,3.998,3.999h31.99c2.211,0,4-1.788,4-3.999
			S390.091,120.026,387.88,120.026z"/>
	</g>
</g>
<g>
	<g>
		<path d="M219.932,120.026H83.974c-2.211,0-3.999,1.788-3.999,3.999s1.789,3.999,3.999,3.999h135.958
			c2.21,0,3.999-1.788,3.999-3.999S222.142,120.026,219.932,120.026z"/>
	</g>
</g>
<g>
	<g>
		<path d="M107.967,168.011H83.974c-2.211,0-3.999,1.788-3.999,3.999s1.789,3.999,3.999,3.999h23.992c2.21,0,4-1.788,4-3.999
			S110.177,168.011,107.967,168.011z"/>
	</g>
</g>
<g>
	<g>
		<path d="M242.676,168.011H123.962c-2.21,0-3.999,1.788-3.999,3.999s1.789,3.999,3.999,3.999h118.713c2.21,0,4-1.788,4-3.999
			S244.886,168.011,242.676,168.011z"/>
	</g>
</g>
<g>
	<g>
		<path d="M275.915,144.019H91.971c-2.21,0-3.999,1.789-3.999,3.999c0,2.21,1.789,3.999,3.999,3.999h183.944
			c2.211,0,3.998-1.789,3.998-3.999C279.913,145.808,278.126,144.019,275.915,144.019z"/>
	</g>
</g>
<g>
	<g>
		<path d="M267.917,192.004h-71.978c-2.211,0-3.999,1.789-3.999,3.999s1.789,3.999,3.999,3.999h71.978c2.211,0,4-1.789,4-3.999
			C271.917,193.793,270.128,192.004,267.917,192.004z"/>
	</g>
</g>
<g>
	<g>
		<path d="M211.934,215.996H75.976c-2.21,0-3.999,1.789-3.999,3.999c0,2.211,1.789,3.999,3.999,3.999h135.959
			c2.21,0,3.998-1.788,3.998-3.999C215.933,217.785,214.144,215.996,211.934,215.996z"/>
	</g>
</g>
<g>
	<g>
		<path d="M139.957,263.983h-63.98c-2.21,0-3.999,1.788-3.999,3.998c0,2.211,1.789,3.999,3.999,3.999h63.98
			c2.21,0,3.999-1.788,3.999-3.999C143.956,265.771,142.167,263.983,139.957,263.983z"/>
	</g>
</g>
<g>
	<g>
		<path d="M299.907,239.989H187.942c-2.21,0-3.999,1.789-3.999,3.999c0,2.21,1.789,3.999,3.999,3.999h111.965
			c2.211,0,4-1.789,4-3.999C303.907,241.778,302.118,239.989,299.907,239.989z"/>
	</g>
</g>
<g>
	<g>
		<path d="M323.9,239.989h-7.996c-2.211,0-4,1.789-4,3.999c0,2.21,1.789,3.999,4,3.999h7.996c2.21,0,4-1.789,4-3.999
			C327.9,241.778,326.111,239.989,323.9,239.989z"/>
	</g>
</g>
<g>
	<g>
		<path d="M171.947,239.989H83.974c-2.211,0-3.999,1.789-3.999,3.999c0,2.21,1.789,3.999,3.999,3.999h87.973
			c2.21,0,3.999-1.789,3.999-3.999C175.946,241.778,174.157,239.989,171.947,239.989z"/>
	</g>
</g>
<g>
	<g>
		<path d="M99.969,287.975h-31.99c-2.211,0-3.999,1.789-3.999,3.999c0,2.21,1.789,3.999,3.999,3.999h31.99
			c2.21,0,3.999-1.789,3.999-3.999C103.968,289.764,102.179,287.975,99.969,287.975z"/>
	</g>
</g>
<g>
	<g>
		<path d="M275.915,215.996h-47.986c-2.21,0-3.999,1.789-3.999,3.999c0,2.211,1.789,3.999,3.999,3.999h47.986
			c2.211,0,3.998-1.788,3.998-3.999C279.913,217.785,278.126,215.996,275.915,215.996z"/>
	</g>
</g>
<g>
	<g>
		<path d="M339.896,192.004h-55.982c-2.211,0-4,1.789-4,3.999s1.789,3.999,4,3.999h55.982c2.211,0,3.998-1.789,3.998-3.999
			C343.894,193.793,342.107,192.004,339.896,192.004z"/>
	</g>
</g>
<g>
	<g>
		<path d="M179.945,192.004H83.974c-2.211,0-3.999,1.789-3.999,3.999s1.789,3.999,3.999,3.999h95.97c2.211,0,3.999-1.789,4-3.999
			C183.944,193.793,182.155,192.004,179.945,192.004z"/>
	</g>
</g>
<g>
</g>
<g>
</g>
<g>
</g>
<g>
</g>
<g>
</g>
<g>
</g>
<g>
</g>
<g>
</g>
<g>
</g>
<g>
</g>
<g>
</g>
<g>
</g>
<g>
</g>
<g>
</g>
<g>
</g>
</svg>
